<svg width="814" height="408" viewBox="0 0 814 408" fill="none" xmlns="http://www.w3.org/2000/svg">
<path d="M449.153 177.543C494.65 177.543 531.533 140.628 531.533 95.0918C531.533 49.5553 494.65 12.6406 449.153 12.6406C403.655 12.6406 366.772 49.5553 366.772 95.0918C366.772 140.628 403.655 177.543 449.153 177.543Z" stroke="#F07939" stroke-width="5" stroke-miterlimit="10"/>
<path d="M601.884 369.471C616.913 369.471 629.097 357.277 629.097 342.235C629.097 327.192 616.913 314.998 601.884 314.998C586.854 314.998 574.67 327.192 574.67 342.235C574.67 357.277 586.854 369.471 601.884 369.471Z" stroke="#F07939" stroke-width="5" stroke-miterlimit="10"/>
<path d="M606.468 170.541C639.905 170.541 667.011 143.412 667.011 109.946C667.011 76.4804 639.905 49.351 606.468 49.351C573.031 49.351 545.924 76.4804 545.924 109.946C545.924 143.412 573.031 170.541 606.468 170.541Z" stroke="#4D70F6" stroke-miterlimit="10"/>
<path d="M138.613 254.396C172.05 254.396 199.156 227.266 199.156 193.801C199.156 160.335 172.05 133.206 138.613 133.206C105.176 133.206 78.0701 160.335 78.0701 193.801C78.0701 227.266 105.176 254.396 138.613 254.396Z" stroke="#F07939" stroke-miterlimit="10"/>
<path d="M229.123 363.967C241.284 363.967 251.142 354.101 251.142 341.929C251.142 329.758 241.284 319.891 229.123 319.891C216.962 319.891 207.104 329.758 207.104 341.929C207.104 354.101 216.962 363.967 229.123 363.967Z" stroke="black" stroke-miterlimit="10"/>
<path d="M173.469 166.87C190.019 166.87 203.435 153.442 203.435 136.877C203.435 120.313 190.019 106.885 173.469 106.885C156.919 106.885 143.502 120.313 143.502 136.877C143.502 153.442 156.919 166.87 173.469 166.87Z" stroke="black" stroke-miterlimit="10"/>
<path d="M42.706 99.9779C59.2561 99.9779 72.6725 86.5499 72.6725 69.9857C72.6725 53.4214 59.2561 39.9935 42.706 39.9935C26.156 39.9935 12.7396 53.4214 12.7396 69.9857C12.7396 86.5499 26.156 99.9779 42.706 99.9779Z" stroke="black" stroke-miterlimit="10"/>
<path d="M676.803 209.717C682.208 209.717 686.589 205.332 686.589 199.923C686.589 194.514 682.208 190.129 676.803 190.129C671.399 190.129 667.018 194.514 667.018 199.923C667.018 205.332 671.399 209.717 676.803 209.717Z" stroke="black" stroke-miterlimit="10"/>
<path d="M657.232 127.556C669.08 127.556 678.685 117.943 678.685 106.085C678.685 94.2274 669.08 84.6146 657.232 84.6146C645.385 84.6146 635.78 94.2274 635.78 106.085C635.78 117.943 645.385 127.556 657.232 127.556Z" stroke="black" stroke-miterlimit="10"/>
<path d="M509.754 100.618C512.627 100.618 514.955 98.2869 514.955 95.4118C514.955 92.5366 512.627 90.2058 509.754 90.2058C506.881 90.2058 504.552 92.5366 504.552 95.4118C504.552 98.2869 506.881 100.618 509.754 100.618Z" stroke="black" stroke-miterlimit="10"/>
<path d="M279.888 191.358C286.307 191.358 291.511 186.149 291.511 179.724C291.511 173.299 286.307 168.091 279.888 168.091C273.468 168.091 268.264 173.299 268.264 179.724C268.264 186.149 273.468 191.358 279.888 191.358Z" stroke="#F07939" stroke-miterlimit="10"/>
<path d="M42.7278 302.66C49.1472 302.66 54.3512 297.451 54.3512 291.026C54.3512 284.601 49.1472 279.393 42.7278 279.393C36.3084 279.393 31.1045 284.601 31.1045 291.026C31.1045 297.451 36.3084 302.66 42.7278 302.66Z" stroke="#F07939" stroke-miterlimit="10"/>
<path d="M790.981 85.9888C797.4 85.9888 802.604 80.7803 802.604 74.3554C802.604 67.9305 797.4 62.7221 790.981 62.7221C784.562 62.7221 779.358 67.9305 779.358 74.3554C779.358 80.7803 784.562 85.9888 790.981 85.9888Z" stroke="#F07939" stroke-miterlimit="10"/>
<path d="M203.442 27.3131C205.469 27.3131 207.111 25.6692 207.111 23.6414C207.111 21.6135 205.469 19.9696 203.442 19.9696C201.416 19.9696 199.774 21.6135 199.774 23.6414C199.774 25.6692 201.416 27.3131 203.442 27.3131Z" stroke="#F07939" stroke-miterlimit="10"/>
<path d="M802.771 200.359C804.797 200.359 806.44 198.715 806.44 196.687C806.44 194.659 804.797 193.015 802.771 193.015C800.745 193.015 799.103 194.659 799.103 196.687C799.103 198.715 800.745 200.359 802.771 200.359Z" stroke="#F07939" stroke-miterlimit="10"/>
<path d="M702.484 306.426C704.51 306.426 706.152 304.782 706.152 302.754C706.152 300.726 704.51 299.082 702.484 299.082C700.457 299.082 698.815 300.726 698.815 302.754C698.815 304.782 700.457 306.426 702.484 306.426Z" stroke="black" stroke-miterlimit="10"/>
<path d="M419.935 323.571C421.961 323.571 423.603 321.927 423.603 319.899C423.603 317.871 421.961 316.227 419.935 316.227C417.908 316.227 416.266 317.871 416.266 319.899C416.266 321.927 417.908 323.571 419.935 323.571Z" stroke="#F07939" stroke-miterlimit="10"/>
<path d="M178.975 133.816C147.578 171.356 116.187 208.902 84.7898 246.442" stroke="black" stroke-miterlimit="10"/>
<path d="M303.737 15.0691C245.025 85.2544 186.313 155.447 127.6 225.632" stroke="#4D70F6" stroke-miterlimit="10"/>
<path d="M264.596 88.519C216.076 147.689 167.555 206.859 119.042 266.029" stroke="#F07939" stroke-miterlimit="10"/>
<path d="M638.882 283.174C607.485 320.713 576.094 358.26 544.697 395.799" stroke="#4D70F6" stroke-miterlimit="10"/>
<path d="M735.509 193.801C686.988 252.971 638.468 312.141 589.955 371.311" stroke="black" stroke-miterlimit="10"/>
<path d="M340.431 316.227L265.823 406.814" stroke="black" stroke-miterlimit="10"/>
<path d="M377.124 311.326L319.64 381.105" stroke="black" stroke-miterlimit="10"/>
<path d="M813 35.0348L755.515 104.813" stroke="black" stroke-miterlimit="10"/>
<path d="M507.037 1C490.59 20.624 474.136 40.248 457.689 59.8719" stroke="black" stroke-miterlimit="10"/>
<path d="M541.181 6.81667C528.439 22.0563 515.689 37.2887 502.947 52.5284" stroke="black" stroke-miterlimit="10"/>
<path d="M543.36 19.9042C531.112 34.4531 518.864 49.002 506.616 63.5437" stroke="black" stroke-miterlimit="10"/>
<path d="M793.749 75.1552L752.159 125.346" stroke="black" stroke-miterlimit="10"/>
<path d="M42.5898 235.841L1 286.031" stroke="black" stroke-miterlimit="10"/>
<path d="M451.739 365.189C451.739 365.189 444.402 348.051 460.304 349.273C476.206 350.494 470.089 333.357 470.089 333.357" stroke="black" stroke-miterlimit="10"/>
<path d="M502.286 335.815C502.286 335.815 498.523 327.031 506.674 327.657C514.825 328.282 511.686 319.499 511.686 319.499" stroke="black" stroke-miterlimit="10"/>
<path d="M614.815 251.342C614.815 251.342 611.052 242.559 619.202 243.184C627.353 243.809 624.215 235.026 624.215 235.026" stroke="black" stroke-miterlimit="10"/>
<path d="M773.183 324.05C773.183 324.05 769.42 315.267 777.57 315.893C785.721 316.518 782.583 307.735 782.583 307.735" stroke="black" stroke-miterlimit="10"/>
<path d="M604.717 109.335C604.717 109.335 602.319 103.73 607.514 104.129C612.715 104.529 610.71 98.9236 610.71 98.9236" stroke="black" stroke-miterlimit="10"/>
<path d="M301.376 61.5879C301.376 61.5879 298.979 55.982 304.173 56.3819C309.375 56.7818 307.37 51.176 307.37 51.176" stroke="#4D70F6" stroke-miterlimit="10"/>
<path d="M413.295 54.2443C413.295 54.2443 409.532 45.4611 417.683 46.0864C425.833 46.7117 422.695 37.9286 422.695 37.9286" stroke="black" stroke-miterlimit="10"/>
<path d="M585.945 180.161C585.945 180.161 563.548 127.854 612.076 131.584C660.61 135.321 641.94 83.0077 641.94 83.0077" stroke="#F07939" stroke-miterlimit="10"/>
<path d="M280.898 319.899C280.898 319.899 277.134 311.116 285.285 311.741C293.436 312.366 290.298 303.583 290.298 303.583" stroke="black" stroke-miterlimit="10"/>
<path d="M247.931 169.32C247.931 169.32 233.394 135.372 264.894 137.793C296.393 140.215 284.276 106.267 284.276 106.267" stroke="#4D70F6" stroke-miterlimit="10"/>
<path d="M513.27 161.46C513.902 162.093 515.784 168.382 514.527 175.296L534.642 167.749C534.642 167.749 530.24 157.054 527.727 155.171C525.213 153.28 513.27 161.46 513.27 161.46Z" fill="#EF6969"/>
<path d="M539.139 130.973C539.139 130.973 538.362 141.305 534.65 146.54C530.938 151.775 531.555 157.417 531.555 157.417L513.103 165.125C512.762 164.87 512.435 164.594 512.108 164.303C507.524 160.224 506.143 154.335 505.737 150.132L539.139 130.973Z" fill="black"/>
<path d="M531.119 149.1L531.431 148.758C532.957 147.086 538.173 144.025 541.014 144.403C541.834 144.512 542.408 144.89 542.735 145.522C542.917 146.228 542.786 146.809 542.372 147.304C540.352 149.71 531.94 149.15 531.584 149.129L531.119 149.1ZM542.365 146.039C542.357 145.922 542.343 145.806 542.314 145.682C542.074 145.232 541.624 144.941 540.948 144.846C538.515 144.519 533.916 147.042 532.1 148.714C533.952 148.794 540.418 148.94 542.023 147.02C542.27 146.729 542.387 146.409 542.365 146.039Z" fill="black"/>
<path d="M531.373 147.064L531.831 147.122C534.076 147.42 539.553 149.965 540.861 152.524C541.239 153.259 541.26 153.949 540.919 154.575C540.447 155.127 539.895 155.353 539.248 155.294C536.124 155.004 531.788 147.769 531.606 147.456L531.373 147.064ZM540.716 153.593C540.701 153.324 540.621 153.033 540.461 152.728C539.343 150.539 534.657 148.198 532.245 147.653C533.233 149.223 536.8 154.618 539.292 154.851C539.793 154.894 540.207 154.727 540.556 154.32C540.672 154.102 540.73 153.855 540.716 153.593Z" fill="black"/>
<path d="M366.198 286.009C366.198 286.009 369.598 287.522 373.114 287.267C375.09 287.122 376.63 286.46 377.517 286.009C377.517 286.009 378.555 286.838 378.773 287.267C382.544 292.299 386.314 297.33 390.084 302.361C386.786 302.914 383.219 303.358 379.398 303.619C371.356 304.165 364.142 303.765 358.026 302.987C361.091 289.158 366.198 286.009 366.198 286.009Z" fill="#EF6969"/>
<path d="M342.944 137.554C336.552 136.601 317.591 132.907 302.873 116.497C301.674 115.159 291.714 105.329 290.596 95.7317C286.637 61.6824 354.582 29.5453 368.254 15.7234L378.766 7.97272C382.326 11.3246 385.893 14.6837 389.452 18.0356C385.987 21.6492 382.442 25.5318 378.861 29.7125C375.584 33.537 372.54 37.2887 369.722 40.9459C369.722 40.9459 357.597 60.6935 340.707 82.4697C342.559 83.6766 345.327 85.5089 348.604 87.8574C357.75 94.4084 360.241 97.3094 364.317 99.8106C368.625 102.45 375.446 105.097 386.176 104.515C371.763 115.53 357.357 126.545 342.944 137.554Z" fill="#EF6969"/>
<path d="M333.203 203.82C333.203 203.82 242.773 235.244 226.449 250.331C226.449 250.331 218.916 256.613 215.146 259.129C211.375 261.645 197.565 280.498 211.375 294.327C225.193 308.156 254.077 303.125 270.407 303.125C286.738 303.125 364.607 304.383 364.607 304.383C363.968 302.296 363.147 298.661 363.692 294.189C364.113 290.772 365.181 288.089 366.046 286.337C368.087 286.853 370.949 287.449 374.407 287.733C377.546 287.987 380.074 287.907 382.769 287.733C386.808 287.471 392.99 286.904 401.032 285.53C417.239 269.519 424.954 247.619 419.005 230.024C410.222 204.089 371.451 186.617 333.203 203.82Z" fill="#4D70F6"/>
<path d="M519.554 239.462C516.35 229.093 513.285 215.41 512.638 199.203C512.231 189.024 512.863 179.906 513.895 172.155C516.161 170.403 519.518 168.207 523.949 166.491C528.126 164.877 531.875 164.237 534.635 163.976C543.353 182.553 549.084 198.832 552.862 211.156C564.551 249.27 561.936 263.673 558.013 272.958C554.889 280.353 551.06 284.206 549.666 285.515C544.05 290.772 534.708 294.858 516.568 295.585C485.171 296.843 427.395 303.125 395.998 284.272C364.6 265.418 390.971 195.022 436.185 210.109C440.123 211.425 443.392 212.065 449.204 213.708C465.883 218.427 478.371 223.72 488.222 227.472C501.196 232.402 511.926 236.524 519.554 239.462Z" fill="#4D70F6"/>
<path d="M411.384 305.146C411.384 305.146 401.221 307.102 395.199 304.892C389.176 302.681 383.902 304.761 383.902 304.761C380.306 298.719 376.71 292.677 373.121 286.642C374.051 285.784 375.003 284.919 375.976 284.054C378.323 281.981 380.648 280.047 382.929 278.244C383.895 279.189 402.87 297.127 411.384 305.146Z" fill="black"/>
<path d="M391.799 302.165L392.206 302.376C394.218 303.408 398.54 307.64 398.918 310.483C399.027 311.305 398.816 311.959 398.293 312.439C397.661 312.802 397.066 312.831 396.484 312.555C393.637 311.239 391.966 302.965 391.893 302.616L391.799 302.165ZM397.705 312.221C397.814 312.184 397.923 312.141 398.032 312.075C398.41 311.726 398.569 311.21 398.475 310.541C398.148 308.105 394.516 304.332 392.424 303.016C392.83 304.826 394.392 311.108 396.659 312.155C397.008 312.315 397.356 312.337 397.705 312.221Z" fill="black"/>
<path d="M393.826 301.867L393.884 302.325C394.182 304.572 393.172 310.534 391.051 312.468C390.44 313.028 389.779 313.224 389.089 313.064C388.435 312.751 388.072 312.279 387.956 311.639C387.411 308.549 393.252 302.456 393.506 302.202L393.826 301.867ZM389.99 312.606C390.244 312.526 390.506 312.366 390.753 312.133C392.569 310.476 393.593 305.335 393.484 302.87C392.235 304.237 387.963 309.094 388.392 311.559C388.479 312.054 388.755 312.41 389.234 312.642C389.489 312.701 389.736 312.686 389.99 312.606Z" fill="black"/>
<path d="M344.833 252.04C312.164 213.912 308.191 149.936 335.716 124.626C351.473 110.135 384.418 102.014 389.983 101.287C390.942 101.163 392.62 100.683 394.872 100.719C403.996 100.85 410.977 107.525 414.806 112.033C413.469 111.379 402.122 106.013 395.119 111.131C394.32 111.713 391.203 113.989 391.348 116.795C391.443 118.635 392.859 118.853 395.119 123.085C396.869 126.364 396.833 127.054 397.632 127.491C399.289 128.385 403.204 126.756 413.418 114.825C417.421 116.061 427.824 119.878 434.318 130.166C441.975 142.294 439.178 155.454 437.457 163.598C434.406 177.979 426.792 187.846 422.15 192.914C423.85 195.175 425.732 197.494 427.809 199.835C434.028 206.837 446.254 216.398 446.254 216.398C434.18 220.579 424.845 225.203 418.387 228.773C409.386 233.747 401.315 239.265 398.272 241.352C383.8 251.291 383.873 253.174 376.899 255.821C372.591 257.457 361.498 261.478 351.132 256.453C348.269 255.065 346.192 253.349 344.833 252.04Z" fill="#F095E5"/>
<path d="M517.106 323.512C507.291 313.537 493.423 299.111 477.296 281.203C447.097 247.648 433.795 229.028 424.824 216.195C403.415 185.577 393.026 167.771 397.429 153.128C401.831 138.484 419.753 136.979 438.249 150.75C456.744 164.521 466.05 180.924 491.273 241.177C493.99 247.67 496.198 252.862 500.092 261.318C510.19 283.225 519.743 300.377 526.274 311.508C523.23 315.5 520.164 319.506 517.106 323.512Z" fill="#EF6969"/>
<path d="M526.288 311.494C523.23 315.5 520.171 319.506 517.113 323.505C519.14 325.068 522.736 327.417 527.77 328.587C535.398 330.361 541.667 328.347 544.181 327.38C544.181 327.38 546.338 326.515 545.685 324.894C545.685 324.894 548.162 323.272 545.895 322.305C546.92 321.84 547.973 321.229 547.893 320.706C547.828 320.291 547.058 320.088 546.862 320.037C541.144 319.004 528.838 315.122 526.288 311.494Z" fill="#EF6969"/>
<path d="M386.939 20.5513C383.379 16.9885 379.812 13.4186 376.253 9.85586C378.112 8.05269 381.381 5.36976 386.14 3.61021C393.433 0.912736 399.863 2.01063 402.565 2.63592C402.565 2.63592 404.817 3.21032 404.381 4.89715C404.381 4.89715 407.047 6.17682 404.933 7.43467C406.008 7.76186 407.134 8.22719 407.127 8.75069C407.12 9.1724 406.386 9.47051 406.19 9.55049C404.49 10.2921 393.855 14.262 386.939 20.5513Z" fill="#EF6969"/>
<path d="M439.019 97.4258C438.677 94.9901 437.123 91.8709 434.406 90.7366C430.628 89.1516 428.1 92.8379 424.671 91.3546C420.647 89.6169 420.632 83.0295 418.54 83.1241C417.683 83.1604 417.276 84.3892 416.012 86.6286C414.196 89.8496 413.999 92.5034 411.813 96.1461C405.057 107.43 391.741 105.133 389.423 114.28C388.428 118.199 390.063 121.819 390.607 123.026C391.051 124.001 393.281 128.458 401.243 131.802C414.13 137.219 433.817 129.098 433.817 129.098L430.795 117.602C432.669 113.182 434.333 109.706 435.459 107.423C438.212 101.89 439.404 100.181 439.019 97.4258Z" fill="#EF6969"/>
<path d="M410.178 109.161C415.554 116.773 423.988 121.209 432.19 120.154C444.99 118.511 455.32 103.766 451.347 93.8485C448.499 86.7377 439.258 84.5055 437.457 84.1056L416.535 82.157C416.535 82.157 413.048 82.1207 412.14 85.6107C411.232 89.0934 412.917 95.2227 412.917 95.2227L408.42 109.146L410.178 109.161Z" fill="#EF6969"/>
<path d="M442.157 83.9238C450.402 83.5821 458.168 87.6247 462.432 94.4956C467.423 102.544 466.486 112.658 461.532 119.376C453.664 130.05 436.004 131.715 427.875 123.172C422.405 117.421 423.007 109.015 423.233 106.776C423.233 106.776 437.558 101.374 445.448 106.921C445.448 106.921 437.573 92.4235 442.157 83.9238Z" fill="black"/>
<path d="M454.107 135.372C450.918 131.766 450.141 125.557 453.555 122.088C457.325 118.264 464.568 119.435 468.048 123.732C471.164 127.585 471.477 134.202 467.372 137.466C463.355 140.658 457.253 138.928 454.107 135.372Z" fill="black"/>
<path d="M459.214 261.478C453.344 258.533 449.945 254.701 446.014 250.157C437.791 240.647 437.072 234.968 429.676 223.735C424.271 215.533 421.242 213.381 415.852 206.75C409.365 198.767 384.156 167.771 393.855 149.507C399.361 139.131 415.198 134.631 427.163 136.928C441.518 139.677 449.509 152.044 460.471 169.007C473.075 188.508 468.295 191.539 479.955 206.75C482.926 210.625 489.747 218.921 493.779 231.914C494.745 235.034 495.326 237.673 495.668 239.462C495.726 250.535 490.321 260.307 481.843 263.993C472.407 268.101 462.607 263.179 459.214 261.478Z" fill="#F095E5"/>
<path d="M460.166 261.347C460.166 261.347 466.762 273.431 470.532 274.689C474.303 275.947 499.148 263.906 499.293 259.551C499.438 255.196 494.411 245.758 494.411 245.758L460.166 261.347Z" fill="#F095E5"/>
<path d="M342.944 137.554C336.552 136.601 317.591 132.907 302.873 116.497C298.26 111.349 291.736 105.329 290.596 95.7317C289.797 89.0207 291.729 83.4949 292.666 80.9428C295.129 74.2028 298.914 70.1529 305.866 62.7003C314.591 53.35 315.847 55.0296 319.066 49.4892C320.519 46.9808 322.189 43.3235 325.982 41.9421C328.103 41.1714 330.151 41.3749 331.583 41.6803C339.901 48.0859 348.218 54.4915 356.536 60.8971C357.154 62.0968 357.822 63.9 357.408 65.8486C356.667 69.324 353.398 68.8587 350.492 73.3957C348.11 77.1184 348.662 80.0994 345.465 82.2007C344.92 82.5569 344.158 82.9641 344.208 83.4585C344.317 84.5419 348.211 84.8109 351.306 85.3998C354.619 86.0324 357.59 87.4793 363.576 90.2931C373.223 94.8301 380.735 100.08 386.183 104.515C371.763 115.53 357.357 126.545 342.944 137.554Z" fill="#F095E5"/>
<path d="M331.633 41.9421C334.779 36.6562 337.554 35.7546 339.174 35.6528C342.923 35.4201 344.187 39.2664 351.742 45.0903C358.476 50.2817 362.515 51.1106 362.428 53.8953C362.428 53.9971 362.414 54.0698 362.399 54.2079C362.268 55.2331 361.825 56.8909 358.033 60.8171C357.735 61.1225 357.307 61.5588 356.776 62.075" fill="#F095E5"/>
<path d="M511.069 173.726C511.069 173.726 525.525 163.031 536.836 163.663L539.982 170.585C539.982 170.585 519.866 174.991 511.069 182.538V173.726V173.726Z" fill="#4D70F6"/>
<path d="M410.621 233.347C412.801 232.496 418.002 230.802 424.555 231.951C431.522 233.18 436.004 236.917 437.704 238.502C437.704 238.502 430.555 224.578 428.95 223.386C427.541 224.018 426.109 224.694 424.664 225.407C419.528 227.93 414.849 230.62 410.621 233.347Z" fill="#3452CE"/>
<path d="M355.2 302.049L357.089 307.713H366.518C366.518 307.713 357.721 296.392 368.407 284.439C368.4 284.439 352.686 290.728 355.2 302.049Z" fill="#4D70F6"/>
<path d="M492.82 229.166C493.285 231.027 493.75 232.881 494.215 234.743C494.68 236.604 495.145 238.458 495.61 240.319C498.123 239.411 502.054 238.415 506.754 238.923C518.551 240.196 525.169 249.83 526.259 251.473C523.935 247.292 521.617 243.104 519.292 238.923C518.094 238.509 516.895 238.095 515.696 237.673C507.88 234.939 500.259 232.096 492.82 229.166Z" fill="#3452CE"/>
<path d="M301.95 259.842C309.106 263.593 317.3 267.374 326.505 270.821C339.457 275.678 351.466 278.76 361.854 280.753L359.203 283.043C359.203 283.043 353.275 287.493 310.196 265.295C307.45 263.484 304.704 261.659 301.95 259.842Z" fill="#3452CE"/>
<path d="M318.87 129.316C324.26 124.146 332.462 117.464 343.751 112.033C359.377 104.515 373.659 102.886 382.289 102.588C382.289 102.588 345.436 112.564 328.575 133.213L328.277 133.765C328.27 133.773 324.245 132.951 318.87 129.316Z" fill="#D87DD1"/>
<path d="M353.5 70.2038C350.71 71.5998 347.928 79.9612 346.533 81.3572C345.516 83.793 339.574 85.538 339.566 85.538C338.36 85.8652 337.038 86.1705 335.614 86.4032C332.941 86.8467 330.507 86.9703 328.422 86.934C331.757 85.6107 336.363 84.7963 339.566 81.3572C345.138 75.3952 349.766 71.5707 353.5 70.2038Z" fill="#D87DD1"/>
<path d="M407.389 235.303C407.389 235.303 424.983 224.578 428.95 223.386L422.877 214.45C422.194 216.98 421.039 220.194 418.983 223.582C415.213 229.806 410.345 233.441 407.389 235.303Z" fill="#D87DD1"/>
<path d="M420.995 293.927C420.973 293.927 420.952 293.927 420.93 293.92C404.999 290.685 395.671 283.814 390.651 278.615C385.195 272.973 383.546 268.167 383.481 267.963C383.423 267.796 383.517 267.621 383.677 267.563C383.844 267.505 384.018 267.6 384.077 267.76C384.142 267.956 390.927 287.173 421.053 293.295C421.22 293.331 421.337 293.498 421.3 293.666C421.271 293.826 421.141 293.927 420.995 293.927Z" fill="black"/>
<path d="M358.345 309.916C358.258 309.916 358.171 309.88 358.106 309.807C357.924 309.596 353.631 304.514 355.519 291.31C355.541 291.135 355.708 291.019 355.875 291.041C356.05 291.063 356.166 291.223 356.144 291.397C354.299 304.317 358.541 309.341 358.585 309.385C358.701 309.516 358.687 309.712 358.556 309.829C358.491 309.887 358.418 309.916 358.345 309.916Z" fill="black"/>
<path d="M509.5 183.789C509.398 183.789 509.296 183.738 509.238 183.643C509.144 183.498 509.18 183.302 509.325 183.207C510.023 182.749 526.593 171.952 535.936 171.268C536.11 171.254 536.263 171.385 536.27 171.559C536.284 171.734 536.154 171.886 535.979 171.894C526.804 172.57 509.841 183.622 509.667 183.738C509.616 183.774 509.558 183.789 509.5 183.789Z" fill="black"/>
<path d="M513.27 172.534C513.168 172.534 513.067 172.483 513.009 172.388C512.914 172.243 512.958 172.046 513.103 171.952C513.147 171.923 517.505 169.145 522.808 166.782C529.979 163.598 535.369 162.652 538.841 163.99C539.001 164.056 539.081 164.237 539.023 164.397C538.958 164.557 538.783 164.637 538.616 164.579C530.683 161.525 513.619 172.366 513.444 172.475C513.386 172.519 513.328 172.534 513.27 172.534Z" fill="black"/>
<path d="M357.089 61.4424C356.994 61.4424 356.907 61.3988 356.842 61.3261C356.733 61.1879 356.754 60.9916 356.892 60.8826C360.125 58.2942 361.832 55.8221 362.123 53.3064C362.312 51.6559 358.229 49.162 354.626 46.9662C352.701 45.7883 350.71 44.5741 349.192 43.418C347.528 42.1456 346.33 40.6697 345.276 39.3682C343.417 37.0779 341.949 35.2747 338.905 35.6528C334.118 36.249 331.633 41.7021 331.612 41.7603C331.539 41.9202 331.35 41.9857 331.198 41.9202C331.038 41.8475 330.965 41.6658 331.038 41.5058C331.147 41.2659 333.682 35.6746 338.825 35.0275C342.232 34.6058 343.867 36.6271 345.763 38.9683C346.795 40.2407 347.964 41.6876 349.57 42.9163C351.059 44.0579 353.035 45.2648 354.945 46.4282C359.072 48.9511 362.973 51.3287 362.74 53.3791C362.435 56.062 360.648 58.6795 357.277 61.3697C357.227 61.4206 357.154 61.4424 357.089 61.4424Z" fill="black"/>
<path d="M357.321 66.4811C357.292 66.4811 357.263 66.4738 357.234 66.4666C357.067 66.4229 356.972 66.2484 357.016 66.0812C357.023 66.0594 357.539 64.1181 356.558 61.486C355.672 59.0939 351.517 57.7707 347.507 56.4983C343.569 55.2477 339.842 54.0625 338.578 51.8449C338.215 51.2124 337.859 50.5362 337.481 49.8382C335.266 45.7011 332.759 41.0114 328.459 41.7094C323.882 42.451 321.979 45.3812 319.785 48.7694C319.523 49.1693 319.269 49.5692 319 49.9763C318.92 50.1217 316.676 54.1352 310.261 58.694C310.123 58.7958 309.927 58.7595 309.825 58.6213C309.723 58.4832 309.76 58.2869 309.898 58.1851C316.182 53.7135 318.441 49.6928 318.463 49.6491C318.746 49.2274 319 48.8275 319.262 48.4276C321.448 45.054 323.512 41.8693 328.364 41.0914C333.115 40.3279 335.731 45.2212 338.041 49.5401C338.411 50.2308 338.775 50.907 339.13 51.5323C340.271 53.5318 344.049 54.7314 347.703 55.8948C351.858 57.2181 356.159 58.585 357.154 61.2679C358.207 64.1035 357.648 66.1612 357.626 66.2484C357.583 66.3939 357.459 66.4811 357.321 66.4811Z" fill="black"/>
<path d="M359.29 259.209C344.245 259.209 334.089 237.586 333.987 237.36C333.914 237.2 333.98 237.018 334.14 236.946C334.3 236.873 334.481 236.939 334.554 237.098C334.655 237.317 344.652 258.577 359.29 258.577C359.37 258.577 359.45 258.577 359.529 258.577C374.538 258.337 380.35 254.73 394.436 243.635C394.574 243.526 394.77 243.548 394.879 243.686C394.988 243.824 394.966 244.02 394.828 244.129C380.619 255.326 374.742 258.962 359.544 259.209C359.457 259.209 359.37 259.209 359.29 259.209Z" fill="black"/>
<path d="M526.15 252.04C526.056 252.04 525.968 252.004 525.903 251.924C525.794 251.786 514.796 237.869 512.464 202.191C512.449 202.017 512.58 201.871 512.754 201.857C512.914 201.842 513.074 201.98 513.088 202.148C515.398 237.629 526.274 251.393 526.383 251.524C526.492 251.662 526.47 251.858 526.339 251.967C526.295 252.018 526.223 252.04 526.15 252.04Z" fill="black"/>
<path d="M545.736 288.874C545.619 288.874 545.51 288.809 545.452 288.7C545.372 288.547 545.438 288.358 545.598 288.278C545.779 288.191 563.73 278.884 560.221 243.948C560.207 243.773 560.33 243.62 560.504 243.606C560.664 243.591 560.831 243.715 560.846 243.889C564.406 279.291 546.062 288.751 545.881 288.845C545.83 288.86 545.779 288.874 545.736 288.874Z" fill="black"/>
<path d="M212.465 295.665C212.4 295.665 212.334 295.643 212.283 295.607C212.145 295.505 198.248 285.181 208.876 266.633C208.964 266.48 209.152 266.429 209.305 266.516C209.457 266.604 209.508 266.793 209.421 266.945C205.142 274.412 204.343 281.647 207.104 287.863C209.196 292.568 212.618 295.076 212.654 295.105C212.792 295.207 212.828 295.403 212.727 295.541C212.661 295.621 212.559 295.665 212.465 295.665Z" fill="black"/>
<path d="M326.287 87.8646C326.112 87.8646 325.974 87.7265 325.974 87.552C325.974 87.3775 326.112 87.2321 326.287 87.2321C333.399 87.1376 340.83 86.5632 346.657 80.7319C346.78 80.6083 346.976 80.6083 347.1 80.7319C347.223 80.8556 347.223 81.0519 347.1 81.1755C341.106 87.1739 333.537 87.7701 326.287 87.8646C326.294 87.8646 326.294 87.8646 326.287 87.8646Z" fill="black"/>
<path d="M358.033 283.537C336.595 283.537 301.333 259.784 300.97 259.536C271.955 245.329 238.167 265.629 237.833 265.833C237.688 265.92 237.492 265.876 237.404 265.731C237.317 265.586 237.361 265.389 237.506 265.302C237.848 265.091 271.933 244.617 301.289 258.998C301.696 259.275 338.557 284.112 359.58 282.868C359.747 282.854 359.9 282.992 359.914 283.166C359.922 283.341 359.791 283.486 359.617 283.501C359.101 283.523 358.571 283.537 358.033 283.537Z" fill="black"/>
<path d="M363.46 296.392C363.285 296.392 363.147 296.254 363.147 296.08C363.147 295.992 363.162 287.384 371.937 280.454C371.778 280.331 371.189 280.084 369.707 279.916C366.649 279.582 362.711 279.887 361.716 280.891C361.694 280.913 359.253 283.377 358.658 285.777C358.614 285.944 358.447 286.046 358.28 286.002C358.113 285.958 358.011 285.791 358.048 285.624C358.687 283.05 361.171 280.549 361.273 280.447C363.06 278.659 371.291 278.913 372.417 280.04C372.577 280.2 372.606 280.36 372.606 280.462C372.606 280.614 372.533 280.76 372.402 280.891C363.808 287.653 363.787 295.992 363.787 296.08C363.772 296.247 363.634 296.385 363.46 296.392Z" fill="black"/>
<path d="M470.532 267.454C470.438 267.454 470.344 267.411 470.278 267.331C468.389 264.808 467.147 261.725 467.096 261.594C467.031 261.434 467.111 261.252 467.271 261.187C467.43 261.121 467.612 261.201 467.677 261.361C467.692 261.39 468.941 264.495 470.779 266.953C470.881 267.091 470.852 267.287 470.714 267.396C470.663 267.432 470.598 267.454 470.532 267.454Z" fill="black"/>
<path d="M493.474 258.329C493.3 258.329 493.162 258.191 493.162 258.017C493.162 253.792 489.232 249.822 489.195 249.779C489.072 249.655 489.072 249.459 489.195 249.335C489.319 249.212 489.515 249.212 489.638 249.335C489.805 249.503 493.794 253.531 493.794 258.017C493.786 258.191 493.648 258.329 493.474 258.329Z" fill="black"/>
<path d="M473.99 262.735C473.91 262.735 473.831 262.706 473.765 262.641C472.443 261.318 472.131 258.468 472.116 258.344C472.094 258.169 472.225 258.017 472.392 257.995C472.552 257.98 472.719 258.104 472.741 258.271C472.741 258.3 473.046 261.027 474.208 262.19C474.332 262.314 474.332 262.51 474.208 262.634C474.15 262.706 474.07 262.735 473.99 262.735Z" fill="black"/>
<path d="M480.899 263.993C480.834 263.993 480.768 263.972 480.71 263.928C478.146 262.001 476.221 256.017 476.141 255.763C476.09 255.595 476.177 255.421 476.344 255.37C476.511 255.319 476.686 255.406 476.736 255.574C476.758 255.632 478.676 261.623 481.081 263.426C481.219 263.528 481.248 263.724 481.146 263.87C481.088 263.95 480.993 263.993 480.899 263.993Z" fill="black"/>
<path d="M485.301 257.071C485.127 257.071 484.989 256.933 484.989 256.759C484.989 255.021 482.519 252.542 482.497 252.52C482.374 252.396 482.374 252.2 482.497 252.076C482.621 251.953 482.817 251.953 482.94 252.076C483.049 252.185 485.614 254.767 485.614 256.766C485.614 256.933 485.476 257.071 485.301 257.071Z" fill="black"/>
<path d="M335.07 45.432C335.041 45.432 335.011 45.4248 334.975 45.4175C334.808 45.3666 334.714 45.1921 334.764 45.0249C334.808 44.8867 335.811 41.673 338.469 41.0114C338.637 40.9678 338.811 41.0695 338.847 41.2368C338.891 41.404 338.789 41.5785 338.615 41.6149C336.305 42.1893 335.367 45.1703 335.36 45.2067C335.324 45.3448 335.2 45.432 335.07 45.432Z" fill="black"/>
<path d="M352.454 58.2069C352.33 58.2069 352.214 58.1342 352.163 58.0179C352.098 57.8579 352.17 57.6761 352.33 57.6034C352.359 57.5889 354.975 56.4401 356.166 53.4591C356.231 53.2991 356.413 53.2191 356.573 53.2846C356.733 53.35 356.812 53.5318 356.747 53.6917C355.454 56.92 352.693 58.1269 352.577 58.1778C352.534 58.1996 352.497 58.2069 352.454 58.2069Z" fill="black"/>
<path d="M337.874 50.209C337.845 50.209 337.808 50.2017 337.779 50.1945C337.612 50.1436 337.525 49.9618 337.576 49.8018C337.641 49.5837 339.29 44.5087 343.802 43.2144C343.969 43.1708 344.143 43.2653 344.187 43.4326C344.238 43.5998 344.136 43.7743 343.969 43.8179C339.777 45.0176 338.186 49.94 338.172 49.9909C338.128 50.1217 338.004 50.209 337.874 50.209Z" fill="black"/>
<path d="M347.659 56.5273C347.579 56.5273 347.499 56.4983 347.441 56.4401C347.318 56.3165 347.31 56.1202 347.434 55.9966C347.47 55.9602 351.117 52.1648 351.117 49.8018C351.117 49.6273 351.255 49.4892 351.429 49.4892C351.604 49.4892 351.742 49.6273 351.742 49.8018C351.742 52.4121 348.037 56.2656 347.884 56.4328C347.819 56.4983 347.739 56.5273 347.659 56.5273Z" fill="black"/>
<path d="M342.385 54.6515C342.334 54.6515 342.283 54.6369 342.24 54.6151C342.087 54.5351 342.029 54.3461 342.109 54.1861C342.225 53.9753 344.928 48.9366 346.853 47.6497C346.998 47.5551 347.194 47.5915 347.289 47.7369C347.383 47.8823 347.347 48.0786 347.201 48.1732C345.4 49.3728 342.69 54.4333 342.661 54.4842C342.61 54.5933 342.501 54.6515 342.385 54.6515Z" fill="black"/>
<path d="M322.473 145.53C322.444 145.53 322.422 145.53 322.393 145.522C322.226 145.479 322.124 145.304 322.168 145.137C327.718 123.906 362.552 105.06 391.61 100.77C391.784 100.741 391.944 100.865 391.966 101.032C391.988 101.207 391.871 101.367 391.704 101.388C362.849 105.649 328.263 124.306 322.778 145.29C322.742 145.435 322.611 145.53 322.473 145.53Z" fill="black"/>
<path d="M454.478 160.18C454.376 160.18 454.274 160.129 454.216 160.042C441.002 140.127 429.349 133.373 417.552 138.79C417.392 138.862 417.21 138.79 417.138 138.637C417.065 138.477 417.13 138.295 417.29 138.222C429.415 132.653 441.321 139.473 454.739 159.7C454.834 159.846 454.797 160.042 454.652 160.137C454.601 160.166 454.536 160.18 454.478 160.18Z" fill="black"/>
<path d="M463.442 262.605C460.725 262.605 457.725 261.449 454.572 259.165C450.86 256.468 448.194 253.109 448.165 253.073C442.564 247.743 439.186 241.345 435.924 235.164C435.277 233.936 434.631 232.721 433.977 231.522C430.127 224.476 419.317 209.404 419.208 209.251C419.106 209.113 419.143 208.917 419.281 208.815C419.419 208.713 419.615 208.742 419.717 208.888C419.826 209.04 430.65 224.142 434.522 231.224C435.176 232.423 435.822 233.638 436.469 234.874C439.709 241.01 443.058 247.358 448.615 252.651C448.746 252.818 459.069 265.731 467.532 260.889C471.041 258.882 473.177 257.457 474.898 256.308C477.485 254.578 479.359 253.334 483.914 251.437C486.558 250.331 488.44 249.597 489.813 249.059C492.769 247.903 493.307 247.692 494.084 246.747C496.685 243.606 495.21 238.182 493.786 232.94C492.936 229.82 489.747 222.695 488.549 220.121C488.505 220.092 488.469 220.048 488.447 219.997C487.989 218.972 487.989 218.972 488.113 218.805C488.185 218.711 488.309 218.667 488.425 218.696C488.469 218.703 488.534 218.783 488.629 218.929L488.665 218.921C488.665 218.929 488.687 218.972 488.759 219.147C489.987 221.306 493.823 230.657 494.397 232.78C495.864 238.182 497.375 243.766 494.571 247.161C493.685 248.23 493.06 248.477 490.045 249.655C488.672 250.193 486.798 250.928 484.161 252.025C479.664 253.901 477.906 255.072 475.254 256.846C473.533 257.995 471.382 259.427 467.852 261.448C466.493 262.212 465.019 262.605 463.442 262.605Z" fill="black"/>
<path d="M471.622 275.103C466.813 275.103 460.435 262.532 460.166 261.987C460.086 261.834 460.151 261.645 460.304 261.565C460.456 261.485 460.645 261.55 460.725 261.703C460.791 261.834 467.394 274.856 471.804 274.463C476.642 274.042 496.118 265.251 499.01 260.147C499.562 257.668 497.702 253.618 495.9 249.706C495.414 248.652 494.912 247.561 494.462 246.514C494.397 246.354 494.469 246.173 494.629 246.1C494.789 246.034 494.971 246.107 495.043 246.267C495.486 247.307 495.988 248.397 496.474 249.444C498.414 253.669 500.245 257.653 499.613 260.336C499.605 260.365 499.598 260.394 499.584 260.416C496.511 265.986 476.497 274.689 471.862 275.089C471.775 275.096 471.695 275.103 471.622 275.103Z" fill="black"/>
<path d="M545.612 322.509C543.367 322.509 540.868 322.087 538.006 321.222C537.839 321.171 537.745 320.997 537.795 320.829C537.846 320.662 538.021 320.568 538.188 320.619C541.275 321.549 543.912 321.949 546.259 321.862C546.455 321.855 546.578 321.993 546.586 322.167C546.593 322.342 546.455 322.487 546.28 322.494C546.055 322.502 545.837 322.509 545.612 322.509Z" fill="black"/>
<path d="M541.943 325.57C539.372 325.57 536.924 325.032 536.771 325.003C536.604 324.967 536.495 324.799 536.531 324.625C536.568 324.458 536.735 324.348 536.909 324.385C536.967 324.399 542.51 325.606 545.525 324.399C545.685 324.334 545.866 324.414 545.932 324.574C545.997 324.734 545.917 324.916 545.757 324.981C544.66 325.425 543.287 325.57 541.943 325.57Z" fill="black"/>
<path d="M394.167 5.45702C394.022 5.45702 393.898 5.3625 393.862 5.21708C393.818 5.04985 393.927 4.87535 394.094 4.839C397.255 4.07556 400.589 4.07556 404.287 4.839C404.454 4.87535 404.563 5.04258 404.534 5.20981C404.497 5.37704 404.33 5.4861 404.163 5.45702C400.56 4.71539 397.313 4.70812 394.247 5.45702C394.218 5.45702 394.189 5.45702 394.167 5.45702Z" fill="black"/>
<path d="M396.681 10.4884C396.579 10.4884 396.477 10.4375 396.419 10.3503C396.325 10.2049 396.361 10.0086 396.506 9.91403C396.666 9.81224 400.407 7.34743 404.853 7.34743C405.028 7.34743 405.166 7.48557 405.166 7.66007C405.166 7.83457 405.028 7.97272 404.853 7.97272C400.596 7.97272 396.891 10.4084 396.855 10.4375C396.804 10.4739 396.739 10.4884 396.681 10.4884Z" fill="black"/>
<path d="M432.451 95.8335C432.016 97.6076 432.473 98.9454 432.51 99.0254C432.553 99.1417 432.677 99.1999 432.786 99.1562C432.902 99.1126 432.96 98.989 432.916 98.8799C432.909 98.8509 431.928 95.9934 434.34 93.1578C434.413 93.0633 434.406 92.9251 434.318 92.8524C434.224 92.7725 434.086 92.787 434.013 92.8742C433.134 93.9067 432.677 94.9246 432.451 95.8335Z" fill="black"/>
<path d="M434.841 86.1342C434.406 87.8937 434.769 89.5733 434.798 89.6823C434.827 89.7987 434.943 89.8714 435.059 89.8496C435.176 89.8205 435.248 89.7042 435.226 89.5878C435.219 89.5515 434.427 85.8724 436.621 83.8657C436.708 83.7857 436.716 83.6476 436.636 83.5603C436.556 83.4731 436.418 83.4658 436.331 83.5458C435.51 84.2801 435.067 85.2181 434.841 86.1342Z" fill="black"/>
<path d="M430.81 98.4801C430.802 98.5164 430.802 98.56 430.81 98.5964C430.846 98.7127 430.969 98.7782 431.078 98.7418L432.589 98.2837C432.706 98.2474 432.771 98.1238 432.735 98.0147C432.698 97.8984 432.575 97.8329 432.466 97.8693L430.955 98.3274C430.882 98.3492 430.824 98.4073 430.81 98.4801Z" fill="black"/>
<path d="M431.224 96.7859C431.195 96.895 431.26 97.0113 431.369 97.0477L432.422 97.3822C432.539 97.4185 432.662 97.3531 432.698 97.2367C432.757 97.1277 432.669 96.9968 432.553 96.9605L431.5 96.626C431.384 96.5896 431.26 96.6551 431.224 96.7714C431.224 96.7787 431.224 96.7859 431.224 96.7859Z" fill="black"/>
<path d="M425.274 88.1264C425.252 88.2136 425.281 88.3009 425.361 88.3591C425.456 88.4318 425.594 88.41 425.666 88.3082C427.228 86.1269 427.984 86.6504 430.228 88.1918C430.708 88.5263 431.253 88.8971 431.878 89.297C431.979 89.3624 432.117 89.3333 432.175 89.2316C432.241 89.1298 432.212 88.9916 432.11 88.9335C431.492 88.5408 430.948 88.17 430.475 87.8428C428.245 86.3014 427.126 85.5307 425.31 88.0609C425.289 88.0682 425.281 88.0973 425.274 88.1264Z" fill="black"/>
<path d="M422.092 86.4396C421.235 89.9223 422.746 91.2601 422.811 91.3183C422.906 91.3983 423.044 91.3837 423.116 91.2965C423.189 91.2019 423.182 91.0711 423.095 90.9911C423.08 90.9765 421.729 89.7478 422.514 86.5486C422.543 86.4323 422.47 86.316 422.354 86.2869C422.245 86.2505 422.121 86.3232 422.092 86.4396Z" fill="black"/>
<path d="M312.811 230.278C311.728 230.278 310.849 229.399 310.849 228.315C310.849 227.232 311.728 226.352 312.811 226.352C313.893 226.352 314.772 227.232 314.772 228.315C314.772 229.391 313.893 230.278 312.811 230.278ZM312.811 226.781C311.968 226.781 311.285 227.465 311.285 228.308C311.285 229.151 311.968 229.835 312.811 229.835C313.654 229.835 314.336 229.151 314.336 228.308C314.336 227.465 313.654 226.781 312.811 226.781Z" fill="black"/>
<path d="M325.35 256.766C324.267 256.766 323.388 255.886 323.388 254.803C323.388 253.72 324.267 252.84 325.35 252.84C326.432 252.84 327.311 253.72 327.311 254.803C327.311 255.886 326.432 256.766 325.35 256.766ZM325.35 253.276C324.507 253.276 323.824 253.96 323.824 254.803C323.824 255.646 324.507 256.33 325.35 256.33C326.192 256.33 326.875 255.646 326.875 254.803C326.875 253.96 326.192 253.276 325.35 253.276Z" fill="black"/>
<path d="M266.841 245.613C265.758 245.613 264.879 244.733 264.879 243.65C264.879 242.566 265.758 241.686 266.841 241.686C267.923 241.686 268.802 242.566 268.802 243.65C268.802 244.733 267.923 245.613 266.841 245.613ZM266.841 242.123C265.998 242.123 265.315 242.806 265.315 243.65C265.315 244.493 265.998 245.176 266.841 245.176C267.683 245.176 268.366 244.493 268.366 243.65C268.366 242.806 267.683 242.123 266.841 242.123Z" fill="black"/>
<path d="M232.007 287.449C230.924 287.449 230.045 286.569 230.045 285.486C230.045 284.403 230.924 283.523 232.007 283.523C233.089 283.523 233.968 284.403 233.968 285.486C233.968 286.562 233.089 287.449 232.007 287.449ZM232.007 283.952C231.164 283.952 230.481 284.635 230.481 285.479C230.481 286.322 231.164 287.005 232.007 287.005C232.849 287.005 233.532 286.322 233.532 285.479C233.532 284.635 232.849 283.952 232.007 283.952Z" fill="black"/>
<path d="M277.984 273.504C276.902 273.504 276.023 272.624 276.023 271.54C276.023 270.457 276.902 269.577 277.984 269.577C279.067 269.577 279.946 270.457 279.946 271.54C279.946 272.624 279.067 273.504 277.984 273.504ZM277.984 270.006C277.142 270.006 276.459 270.69 276.459 271.533C276.459 272.377 277.142 273.06 277.984 273.06C278.827 273.06 279.51 272.377 279.51 271.533C279.51 270.69 278.827 270.006 277.984 270.006Z" fill="black"/>
<path d="M316.995 290.234C315.913 290.234 315.034 289.354 315.034 288.271C315.034 287.187 315.913 286.307 316.995 286.307C318.078 286.307 318.957 287.187 318.957 288.271C318.957 289.354 318.078 290.234 316.995 290.234ZM316.995 286.744C316.153 286.744 315.47 287.427 315.47 288.271C315.47 289.114 316.153 289.798 316.995 289.798C317.838 289.798 318.521 289.114 318.521 288.271C318.521 287.427 317.831 286.744 316.995 286.744Z" fill="black"/>
<path d="M408.943 262.35C407.861 262.35 406.982 261.47 406.982 260.387C406.982 259.304 407.861 258.424 408.943 258.424C410.026 258.424 410.905 259.304 410.905 260.387C410.905 261.47 410.026 262.35 408.943 262.35ZM408.943 258.853C408.101 258.853 407.418 259.536 407.418 260.38C407.418 261.223 408.101 261.907 408.943 261.907C409.786 261.907 410.469 261.223 410.469 260.38C410.469 259.536 409.786 258.853 408.943 258.853Z" fill="black"/>
<path d="M439.593 279.08C438.51 279.08 437.631 278.201 437.631 277.117C437.631 276.034 438.51 275.154 439.593 275.154C440.675 275.154 441.554 276.034 441.554 277.117C441.554 278.201 440.675 279.08 439.593 279.08ZM439.593 275.59C438.75 275.59 438.067 276.274 438.067 277.117C438.067 277.961 438.75 278.644 439.593 278.644C440.435 278.644 441.118 277.961 441.118 277.117C441.118 276.274 440.435 275.59 439.593 275.59Z" fill="black"/>
<path d="M517.607 273.504C516.525 273.504 515.646 272.624 515.646 271.54C515.646 270.457 516.525 269.577 517.607 269.577C518.689 269.577 519.568 270.457 519.568 271.54C519.568 272.624 518.689 273.504 517.607 273.504ZM517.607 270.006C516.764 270.006 516.081 270.69 516.081 271.533C516.081 272.377 516.764 273.06 517.607 273.06C518.45 273.06 519.133 272.377 519.133 271.533C519.133 270.69 518.45 270.006 517.607 270.006Z" fill="black"/>
<path d="M548.264 255.377C547.181 255.377 546.302 254.498 546.302 253.414C546.302 252.331 547.181 251.451 548.264 251.451C549.346 251.451 550.225 252.331 550.225 253.414C550.225 254.498 549.346 255.377 548.264 255.377ZM548.264 251.88C547.421 251.88 546.738 252.564 546.738 253.407C546.738 254.25 547.421 254.934 548.264 254.934C549.106 254.934 549.789 254.25 549.789 253.407C549.789 252.564 549.099 251.88 548.264 251.88Z" fill="black"/>
<path d="M531.54 213.541C530.458 213.541 529.579 212.661 529.579 211.578C529.579 210.495 530.458 209.615 531.54 209.615C532.623 209.615 533.502 210.495 533.502 211.578C533.502 212.661 532.623 213.541 531.54 213.541ZM531.54 210.051C530.698 210.051 530.015 210.734 530.015 211.578C530.015 212.421 530.698 213.105 531.54 213.105C532.383 213.105 533.066 212.421 533.066 211.578C533.066 210.734 532.383 210.051 531.54 210.051Z" fill="black"/>
<path d="M383.655 223.575C383.583 223.575 383.51 223.538 383.474 223.473C383.408 223.371 383.437 223.233 383.539 223.168L391.239 218.303C391.341 218.238 391.472 218.267 391.537 218.369C391.603 218.471 391.574 218.609 391.472 218.674L383.771 223.538C383.735 223.56 383.692 223.575 383.655 223.575Z" fill="black"/>
<path d="M341.695 208.771C341.666 208.706 341.666 208.626 341.709 208.56C341.775 208.459 341.913 208.43 342.015 208.495L349.65 213.468C349.751 213.534 349.78 213.672 349.715 213.774C349.65 213.875 349.512 213.904 349.41 213.839L341.775 208.866C341.738 208.837 341.709 208.808 341.695 208.771Z" fill="black"/>
<path d="M371.705 170.621C371.719 170.549 371.77 170.49 371.843 170.461C371.952 170.418 372.083 170.476 372.126 170.585L375.432 179.077C375.475 179.186 375.417 179.317 375.308 179.361C375.199 179.404 375.068 179.346 375.025 179.237L371.719 170.745C371.698 170.701 371.698 170.658 371.705 170.621Z" fill="black"/>
<path d="M339.116 146.54C339.16 146.482 339.232 146.453 339.312 146.46C339.436 146.475 339.515 146.584 339.501 146.7L338.419 155.752C338.404 155.869 338.295 155.956 338.179 155.941C338.055 155.927 337.975 155.818 337.99 155.702L339.072 146.649C339.072 146.613 339.087 146.569 339.116 146.54Z" fill="black"/>
<path d="M369.01 121.274C369.002 121.201 369.024 121.129 369.082 121.078C369.177 120.998 369.315 121.012 369.388 121.1L375.294 128.043C375.374 128.138 375.359 128.269 375.272 128.349C375.177 128.429 375.039 128.414 374.967 128.327L369.061 121.383C369.032 121.347 369.017 121.31 369.01 121.274Z" fill="black"/>
<path d="M413.498 154.436C413.433 154.4 413.389 154.335 413.389 154.255C413.382 154.131 413.476 154.029 413.593 154.022L422.688 153.513C422.804 153.506 422.913 153.6 422.92 153.717C422.928 153.84 422.833 153.942 422.717 153.949L413.622 154.458C413.578 154.465 413.534 154.458 413.498 154.436Z" fill="black"/>
<path d="M412.83 186.552C412.793 186.61 412.728 186.653 412.648 186.653C412.525 186.653 412.43 186.559 412.423 186.435L412.292 177.318C412.292 177.201 412.387 177.1 412.51 177.1C412.634 177.1 412.728 177.194 412.735 177.318L412.866 186.435C412.866 186.479 412.852 186.515 412.83 186.552Z" fill="black"/>
<path d="M460.754 191.845C460.776 191.918 460.762 191.99 460.703 192.048C460.624 192.136 460.485 192.143 460.398 192.063L453.628 185.963C453.541 185.883 453.533 185.745 453.613 185.657C453.693 185.57 453.831 185.563 453.918 185.643L460.689 191.743C460.725 191.765 460.747 191.801 460.754 191.845Z" fill="black"/>
<path d="M450.003 211.505C450.075 211.512 450.141 211.549 450.184 211.614C450.242 211.723 450.206 211.854 450.097 211.912L442.15 216.369C442.048 216.427 441.91 216.391 441.852 216.282C441.794 216.173 441.83 216.042 441.939 215.984L449.886 211.527C449.923 211.512 449.959 211.505 450.003 211.505Z" fill="black"/>
<path d="M480.855 236.699C480.921 236.677 481.001 236.684 481.066 236.735C481.161 236.808 481.175 236.946 481.095 237.04L475.363 244.122C475.291 244.217 475.153 244.231 475.058 244.151C474.964 244.079 474.949 243.94 475.029 243.846L480.761 236.764C480.783 236.735 480.819 236.706 480.855 236.699Z" fill="black"/>
<path d="M348.821 103.657C348.749 103.657 348.676 103.621 348.64 103.555C348.574 103.453 348.604 103.315 348.705 103.25L356.406 98.3855C356.507 98.3201 356.638 98.3492 356.704 98.451C356.769 98.5528 356.74 98.6909 356.638 98.7563L348.938 103.621C348.901 103.642 348.865 103.657 348.821 103.657Z" fill="black"/>
<path d="M302.561 94.4302C302.561 94.3575 302.59 94.2848 302.655 94.2411C302.757 94.1757 302.887 94.2048 302.96 94.2993L308.016 101.883C308.082 101.985 308.06 102.115 307.958 102.188C307.856 102.254 307.726 102.225 307.653 102.13L302.597 94.5465C302.575 94.5102 302.561 94.4738 302.561 94.4302Z" fill="black"/>
<path d="M328.343 56.1129C328.415 56.1056 328.488 56.1347 328.539 56.1929C328.611 56.2874 328.597 56.4256 328.502 56.4983L321.383 62.1841C321.289 62.2568 321.151 62.2422 321.078 62.1477C321.005 62.0532 321.02 61.915 321.114 61.8423L328.234 56.1565C328.27 56.1347 328.306 56.1202 328.343 56.1129Z" fill="black"/>
</svg>
