<svg width="170" height="186" viewBox="0 0 170 186" fill="none" xmlns="http://www.w3.org/2000/svg">
<path d="M1.52588e-05 180.11H155.309C133.791 171.781 115.397 171.144 108.89 171.867C80.778 147.92 69.9902 161.889 68.1103 171.867C60.8221 162.15 49.7451 168.686 45.1177 173.169C40.3456 164.492 30.8015 166.228 23.4265 171.867C17.5265 176.379 5.35051 179.242 1.52588e-05 180.11Z" fill="white"/>
<path d="M93 180.145L97.6088 160.145L87.6088 154.645L84.6088 173.645C82.1088 174.645 77.8322 176.878 78.1088 178.645C78.5 181.145 88.3333 180.478 93 180.145Z" fill="#EF6969"/>
<path d="M165.633 171.058L155.701 153.684L144.624 156.433L155.318 172.421C154.161 174.853 152.826 178.013 154.5 178.645C156.174 179.277 162.432 174.47 165.633 171.058Z" fill="#EF6969"/>
<path d="M98.5 156.145L87.6088 157.145L96.3396 165.645L98.5 156.145Z" fill="#D73B45"/>
<path d="M155.7 153.684L146.321 158.269L158.502 158.584L155.7 153.684Z" fill="#D73B45"/>
<path d="M141.609 160.145C154.409 160.145 161.275 148.145 163.109 142.145C142.309 126.545 137.775 114.978 138.109 111.145C137.709 78.345 133.942 68.8117 132.109 68.145C127.942 74.9784 118.809 91.745 115.609 104.145C112.409 116.545 131.609 146.645 141.609 160.145Z" fill="#F56150"/>
<path d="M105.109 158.145C101.609 111.645 112.109 115.645 135.109 72.1449C131.609 64.4783 118.06 51.7933 105.109 72.1449C91.1088 94.145 79.5 127.145 81 153.645C88.6 160.045 100.275 159.145 105.109 158.145Z" fill="#FF7C66"/>
<path d="M71.6273 66.1191C73.0965 61.0672 79.9245 56.1935 83.1548 54.3881L89.1102 59.3664C82.6704 63.7223 70.1581 71.171 71.6273 66.1191Z" fill="#EF6969"/>
<path d="M161.609 85.145C161.209 83.945 156.775 76.9783 154.609 73.645C149.109 69.8117 139.809 64.845 146.609 75.645C155.109 89.145 162.109 86.645 161.609 85.145Z" fill="#EF6969"/>
<path d="M80.4039 52.0045C82.8986 58.0191 89.1442 63.2428 91.9552 65.1029C93.9454 61.6172 98.4324 53.5579 100.458 49.2063C102.484 44.8547 119.694 33.1585 128.046 27.8543C128.075 26.2131 126.881 23.0104 121.88 23.3293C115.627 23.728 110.375 27.9015 103.014 36.6079C97.1239 43.573 85.4864 49.7744 80.4039 52.0045Z" fill="#5AC572"/>
<path d="M96.4722 50.6602C101.91 40.869 107.294 37.6814 109.75 37.5381C113.109 48.145 92.5116 66.4899 90.8376 65.1344C89.2354 63.837 86.6954 61.0001 85.3042 59.2495C89.1416 60.4842 93.0648 56.7953 96.4722 50.6602Z" fill="#4AA359"/>
<path d="M103.609 70.145C114.009 76.145 135.609 74.645 145.109 73.145L121.609 24.145C104.009 34.545 102.275 59.145 103.609 70.145Z" fill="#5AC572"/>
<path d="M126.109 34.145C127.709 34.545 138.109 60.4784 142.609 73.145C136.609 74.645 121.609 74.645 114.609 73.645C116.109 69.645 117.145 70.1574 122.109 65.645C127.609 60.645 123.609 49.145 122.109 41.645C120.609 34.145 124.109 33.645 126.109 34.145Z" fill="#4AA359"/>
<path d="M138.109 77.1452C148.909 77.9452 157.275 73.4785 160.109 71.1452C155.609 66.8119 145.509 54.9452 141.109 42.1452C135.609 26.1452 128.109 24.6452 127.109 24.1452C126.109 23.6452 118.109 21.645 120.609 29.6452C122.461 35.5722 132.942 63.8119 138.109 77.1452Z" fill="#5AC572"/>
<path d="M120.806 16.7605C122.346 18.5062 121.57 20.1428 120.806 20.6449C122.201 22.5189 125.109 27.645 117.609 30.645C114.552 31.8678 115.192 28.8724 114.816 24.6336C115.132 24.6992 114.687 24.4882 110.374 23.1191C106.061 21.7501 109.21 15.349 111.058 12.1655C111.096 12.3053 111.547 13.9211 113.232 16.9747C114.097 18.5407 115.466 18.6263 115.885 18.515C114.91 16.5297 118.88 14.5784 120.806 16.7605Z" fill="#EF6969"/>
<path d="M120.386 16.8715C122.109 19.1449 120.331 21.1449 120.109 21.1449C122.231 22.3771 127.152 19.4764 126.793 16.4299C126.433 13.3835 124.316 11.9102 123.734 8.02508C123.152 4.14 118.995 5.46641 117.008 5.23772C115.021 5.00904 112.619 3.72579 110.339 6.07239C107.519 8.97515 109.027 12.405 110.134 13.757C110.796 13.4318 112.236 13.5584 112.702 16.6665C113.167 19.7745 115.446 19.6786 116.527 19.2421C115.44 16.8375 118.858 14.8553 120.386 16.8715Z" fill="black"/>
<path d="M123.673 8.55169C123.422 10.7299 124.985 12.6989 127.163 12.9496C129.341 13.2003 131.31 11.6378 131.561 9.45967C131.812 7.2815 130.249 5.31249 128.071 5.06176C125.893 4.81103 123.924 6.37352 123.673 8.55169Z" fill="black"/>
<path d="M80.9737 175.645L80.9859 175.369C80.9941 175.156 81.1983 170.072 79.7279 168.896C79.4256 168.653 79.0743 168.588 78.6822 168.695C78.2819 168.913 78.0654 169.266 78.0123 169.76C77.8285 171.479 79.7401 174.572 80.7654 175.464L80.9737 175.645ZM79.0253 168.908C79.2132 168.908 79.397 168.974 79.5604 169.106C80.7327 170.044 80.749 173.946 80.7286 175.061C79.6993 173.992 78.1226 171.265 78.2778 169.789C78.3227 169.381 78.4861 169.102 78.7843 168.941C78.866 168.921 78.9436 168.908 79.0253 168.908Z" fill="black"/>
<path d="M153.004 177.199L152.918 176.937C152.85 176.734 151.237 171.909 149.445 171.331C149.076 171.211 148.725 171.275 148.396 171.514C148.099 171.86 148.022 172.267 148.147 172.747C148.586 174.42 151.47 176.633 152.745 177.104L153.004 177.199ZM148.793 171.592C148.968 171.525 149.163 171.522 149.363 171.587C150.792 172.047 152.192 175.691 152.568 176.74C151.226 176.105 148.785 174.115 148.406 172.68C148.303 172.283 148.357 171.964 148.579 171.708C148.648 171.66 148.716 171.621 148.793 171.592Z" fill="black"/>
<path d="M80.1184 174.645C80.7769 174.645 81.3537 174.593 81.7341 174.498L81.9999 174.43L81.7791 174.267C81.6073 174.14 77.566 171.183 75.7704 171.707C75.4022 171.815 75.1445 172.057 75.0096 172.431C74.9564 172.872 75.1241 173.238 75.4963 173.552C76.4207 174.331 78.5109 174.645 80.1184 174.645ZM81.3823 174.303C79.922 174.534 76.793 174.295 75.6763 173.361C75.3695 173.103 75.2345 172.816 75.2713 172.49C75.3695 172.224 75.5618 172.041 75.8481 171.958C77.2838 171.54 80.4824 173.671 81.3823 174.303Z" fill="black"/>
<path d="M151.85 176.568C152.466 176.334 152.986 176.081 153.308 175.857L153.533 175.699L153.268 175.625C153.063 175.567 148.235 174.236 146.742 175.364C146.436 175.595 146.281 175.913 146.288 176.31C146.395 176.742 146.681 177.024 147.141 177.186C148.281 177.586 150.347 177.138 151.85 176.568ZM152.91 175.8C151.627 176.533 148.617 177.42 147.241 176.943C146.863 176.811 146.635 176.591 146.554 176.273C146.551 175.989 146.666 175.75 146.904 175.57C148.098 174.671 151.845 175.528 152.91 175.8Z" fill="black"/>
<path d="M72.9999 180.506C72.9999 180.506 76.4076 175.996 79.6347 174.71C82.8618 173.423 84.2507 170.645 84.2507 170.645L94.8678 172.666C94.8678 172.666 96.4151 177.207 95.8919 180.645L72.9999 180.506Z" fill="black"/>
<path d="M155.5 180.145L146 180.145C146 180.145 149.5 177.145 152.488 176.765C152 173.645 153.5 172.645 153.685 170.732L163.346 165.886C163.346 165.886 167.333 168.553 169.007 171.601L155.5 180.145Z" fill="black"/>
</svg>
