<svg width="125" height="125" viewBox="0 0 125 125" fill="none" xmlns="http://www.w3.org/2000/svg">
<g filter="url(#filter0_d)">
<circle cx="57.5" cy="57.5" r="47.5" fill="white"/>
</g>
<path d="M78.9192 62.8906L75.9918 53.3594C75.9569 48.5228 74.0717 43.9672 70.6745 40.5179C67.2491 37.04 62.6769 35.0813 57.8004 35.0026C54.3338 34.9448 50.9421 35.8474 47.9939 37.6076C47.5663 37.8629 47.4266 38.4165 47.682 38.8442C47.9374 39.2718 48.491 39.4115 48.9186 39.1561C51.5785 37.568 54.6408 36.7562 57.7713 36.8059C66.8239 36.9521 74.1887 44.4394 74.1887 53.4962C74.1887 53.586 74.202 53.6753 74.2284 53.761L77.1928 63.413H73.1477C72.6496 63.413 72.2459 63.8168 72.2459 64.3148V69.2944C72.2459 71.6674 70.3153 73.5979 67.9424 73.5979H61.0547C58.9106 73.5979 56.8948 72.7629 55.3787 71.2468C55.0265 70.8947 54.4555 70.8947 54.1032 71.2468C53.7511 71.5989 53.7511 72.17 54.1032 72.5221C55.8976 74.3165 58.2634 75.3316 60.7901 75.3979L59.4652 80.023C59.328 80.5019 59.605 81.0011 60.0837 81.1383C60.1667 81.1621 60.2503 81.1734 60.3325 81.1734C60.7247 81.1734 61.0857 80.9155 61.199 80.5197L62.6652 75.4015H67.9423C71.3098 75.4015 74.0494 72.6618 74.0494 69.2943V65.2166H77.2002C77.7766 65.2166 78.3038 64.9507 78.6464 64.4871C78.989 64.0236 79.0884 63.4417 78.9192 62.8906Z" fill="#F7B944"/>
<path d="M40.806 53.2057C40.8589 50.0901 41.7657 47.0715 43.4281 44.4761C43.6968 44.0568 43.5746 43.499 43.1552 43.2303C42.7359 42.9618 42.1781 43.0839 41.9095 43.5032C40.0664 46.3804 39.0612 49.7248 39.0027 53.175C38.9432 56.6732 39.8524 60.5772 41.4972 63.886C43.0785 67.0671 43.5012 70.6777 42.6874 74.0527L41.2388 80.0602C41.122 80.5443 41.4199 81.0315 41.9041 81.1482C41.9751 81.1653 42.0462 81.1735 42.1163 81.1735C42.5232 81.1735 42.8925 80.8961 42.9922 80.4829L44.4408 74.4755C45.3538 70.689 44.882 66.6431 43.1124 63.0831C41.5919 60.0247 40.7513 56.4244 40.806 53.2057Z" fill="#F7B944"/>
<path d="M44.5829 41.4728C44.76 41.6588 44.9974 41.7524 45.2353 41.7524C45.4588 41.7524 45.6826 41.6697 45.8573 41.5034C46.2181 41.1599 46.2315 40.5886 45.888 40.228C45.5444 39.8672 44.9736 39.8534 44.613 40.1969C44.2523 40.5404 44.2384 41.1112 44.5819 41.4719L44.5829 41.4728Z" fill="#F07939"/>
<path d="M60.9419 60.56C62.6122 60.56 64.2778 60.1284 65.7568 59.2746C68.4269 57.733 70.2083 54.9775 70.5219 51.9036C70.5614 51.5169 70.3487 51.1485 69.9941 50.9894C68.7581 50.4346 67.4339 50.1548 66.1115 50.1455C66.1007 48.8115 65.8131 47.4847 65.2631 46.2595C65.104 45.9049 64.736 45.6918 64.3489 45.7317C63.1552 45.8534 61.9884 46.2007 60.923 46.7448C60.2101 45.384 59.1886 44.1828 57.915 43.2568C57.6006 43.0283 57.1751 43.0268 56.8593 43.2533C55.5695 44.1778 54.5338 45.3836 53.8109 46.7527C52.7414 46.204 51.5689 45.8539 50.3698 45.7317C49.9827 45.6919 49.6147 45.9049 49.4556 46.2595C48.9056 47.4846 48.6181 48.8114 48.6072 50.1455C47.2853 50.1551 45.9616 50.4347 44.726 50.9894C44.3714 51.1485 44.1586 51.517 44.1981 51.9036C44.5118 54.9775 46.2932 57.733 48.9633 59.2746C50.4424 60.1286 52.1077 60.56 53.7782 60.56C54.9926 60.56 56.2097 60.3311 57.36 59.8715C58.5105 60.3311 59.7272 60.56 60.9419 60.56ZM68.6305 52.386C68.2071 54.6136 66.8302 56.5721 64.8549 57.7125C62.8795 58.8531 60.495 59.0662 58.3542 58.3191C58.7776 56.0916 60.1544 54.1331 62.1299 52.9926C64.1052 51.852 66.4899 51.639 68.6305 52.386ZM63.8666 47.6228C64.1679 48.4844 64.3174 49.3927 64.3081 50.3025C63.5408 50.4421 62.7884 50.6748 62.0691 51C62.0317 50.116 61.8777 49.2484 61.6172 48.4173C62.3206 48.0416 63.0812 47.7718 63.8666 47.6228ZM57.3808 45.1319C59.2123 46.7058 60.2836 49.0209 60.2754 51.4491C60.2747 51.6592 60.2652 51.8702 60.2487 52.0799C59.0113 53.0144 58.0234 54.2333 57.36 55.6186C56.696 54.2319 55.7069 53.0119 54.4677 52.0771C54.4518 51.862 54.4433 51.6454 54.444 51.4296C54.452 49.0013 55.5388 46.6935 57.3808 45.1319ZM50.852 47.6228C51.6411 47.7726 52.4052 48.0444 53.1114 48.423C52.8486 49.2518 52.6922 50.1178 52.6518 51.0004C51.9318 50.6748 51.1787 50.442 50.4105 50.3023C50.4012 49.3924 50.5507 48.4842 50.852 47.6228ZM49.8651 57.7125C47.8897 56.5721 46.5128 54.6135 46.0894 52.386C48.2302 51.6389 50.6148 51.8521 52.5901 52.9926C54.5655 54.133 55.9423 56.0916 56.3658 58.3191C54.2251 59.0662 51.8404 58.8531 49.8651 57.7125Z" fill="#F7B944"/>
<defs>
<filter id="filter0_d" x="-3.05176e-05" y="0" width="125" height="125" filterUnits="userSpaceOnUse" color-interpolation-filters="sRGB">
<feFlood flood-opacity="0" result="BackgroundImageFix"/>
<feColorMatrix in="SourceAlpha" type="matrix" values="0 0 0 0 0 0 0 0 0 0 0 0 0 0 0 0 0 0 127 0"/>
<feOffset dx="5" dy="5"/>
<feGaussianBlur stdDeviation="7.5"/>
<feColorMatrix type="matrix" values="0 0 0 0 0 0 0 0 0 0 0 0 0 0 0 0 0 0 0.07 0"/>
<feBlend mode="normal" in2="BackgroundImageFix" result="effect1_dropShadow"/>
<feBlend mode="normal" in="SourceGraphic" in2="effect1_dropShadow" result="shape"/>
</filter>
</defs>
</svg>
