<svg width="125" height="125" viewBox="0 0 125 125" fill="none" xmlns="http://www.w3.org/2000/svg">
<g filter="url(#filter0_d)">
<circle cx="67.5" cy="57.5" r="47.5" fill="white"/>
</g>
<path d="M97.2022 63.9291C94.0305 63.2925 90.7968 63.0088 87.5614 63.0832C89.4214 58.4244 89.8047 52.8072 88.6836 46.339C88.6594 46.2007 88.6066 46.0688 88.5287 45.9515C88.4507 45.8343 88.3492 45.7342 88.2305 45.6574C88.1117 45.5806 87.9783 45.5289 87.8385 45.5054C87.6987 45.4819 87.5555 45.4871 87.4178 45.5208C83.9262 46.4933 80.6006 47.9756 77.5507 49.9188C75.5665 44.563 72.1699 39.8306 67.7135 36.2133C67.5135 36.0604 67.2639 35.9854 67.0118 36.0024C66.7597 36.0193 66.5226 36.1271 66.3454 36.3054C61.7626 40.9192 58.6989 45.6599 57.1985 50.42C53.9481 48.2328 50.3631 46.5779 46.5812 45.5187C46.4435 45.4851 46.3003 45.4799 46.1605 45.5034C46.0207 45.5269 45.8872 45.5786 45.7685 45.6554C45.6497 45.7321 45.5482 45.8322 45.4703 45.9495C45.3923 46.0668 45.3396 46.1987 45.3154 46.337C44.1942 52.8051 44.5817 58.4213 46.4375 63.0812C43.2021 63.0068 39.9685 63.2905 36.7967 63.927C36.6518 63.9604 36.516 64.0245 36.3986 64.1149C36.2812 64.2053 36.1851 64.3199 36.1168 64.4507C36.0482 64.5811 36.0088 64.7247 36.0013 64.8715C35.9938 65.0184 36.0184 65.1651 36.0734 65.3017C40.5642 76.4318 49.3174 78.9959 56.4297 78.9959C60.0234 78.9734 63.5908 78.3879 66.9995 77.2612C70.4083 78.3895 73.9761 78.9764 77.5703 79C84.6816 79 93.4358 76.4348 97.9266 65.3058C97.9816 65.1692 98.0062 65.0224 97.9987 64.8756C97.9912 64.7287 97.9518 64.5852 97.8832 64.4548C97.8151 64.3235 97.7189 64.2084 97.6013 64.1177C97.4837 64.0269 97.3475 63.9625 97.2022 63.9291ZM85.2706 63.1937C81.4868 63.424 77.7933 64.4343 74.427 66.1598C74.2462 66.2034 74.0811 66.2954 73.9496 66.4257C71.8579 67.6211 70.0337 69.225 68.5877 71.1398C68.6329 69.2508 68.4564 67.3631 68.0617 65.5144C69.3017 60.3217 72.4895 55.9001 77.5682 52.3633C80.4196 50.4163 83.5405 48.8878 86.834 47.8251C87.7164 53.8412 87.1832 59.0002 85.2706 63.1937ZM67.1534 38.4093C68.9731 40.0038 73.809 44.7169 75.7765 51.14C71.8514 53.8732 68.8043 57.6672 66.9995 62.0686C65.3254 57.9523 62.5479 54.3664 58.9665 51.6975C60.2158 47.2595 62.9551 42.796 67.1534 38.4093ZM47.1691 47.819C50.7502 48.9726 54.1236 50.6814 57.1634 52.8819C61.5283 55.9082 64.6439 60.3913 65.9383 65.5083C65.5428 67.3568 65.366 69.2447 65.4113 71.1337C61.2253 65.5696 54.5718 63.6529 48.7274 63.1886C46.8157 59.0002 46.2826 53.8402 47.1691 47.8221V47.819ZM55.0068 76.9564C47.2704 76.5412 41.7184 72.7507 38.4852 65.6893C43.1692 64.8997 60.0618 63.0219 65.6324 75.5573C62.1985 76.6268 58.6038 77.1012 55.0068 76.9595V76.9564ZM78.9921 76.9564C75.3952 77.0969 71.8007 76.6226 68.3666 75.5542C73.9361 63.0229 90.8277 64.9007 95.519 65.6893C92.2806 72.7507 86.7286 76.5412 78.9921 76.9595V76.9564Z" fill="#EF6969"/>
<circle cx="39" cy="57" r="1" fill="#EF6969"/>
<circle cx="94" cy="57" r="1" fill="#EF6969"/>
<circle cx="47" cy="69" r="1" fill="#EF6969"/>
<circle cx="79" cy="41" r="1" fill="#EF6969"/>
<circle cx="88" cy="69" r="1" fill="#EF6969"/>
<circle cx="67" cy="47" r="1" fill="#EF6969"/>
<circle cx="60" cy="61" r="1" fill="#EF6969"/>
<circle cx="54" cy="41" r="1" fill="#EF6969"/>
<path d="M51.3954 53.0815C50.8881 52.8631 50.2999 53.0973 50.0815 53.6046C49.8631 54.1119 50.0973 54.7001 50.6046 54.9185L51.3954 53.0815ZM64.0421 71.2871C64.2007 71.8162 64.7581 72.1165 65.2871 71.9579C65.8162 71.7993 66.1165 71.2419 65.9579 70.7129L64.0421 71.2871ZM55.2543 57.6899C55.6887 58.0309 56.3174 57.9552 56.6584 57.5207C56.9994 57.0863 56.9236 56.4577 56.4892 56.1167L55.2543 57.6899ZM63.8126 65.2668C63.5652 64.773 62.9644 64.5732 62.4706 64.8205C61.9768 65.0678 61.777 65.6686 62.0243 66.1624L63.8126 65.2668ZM50.6046 54.9185C52.2315 55.6188 53.7931 56.543 55.2543 57.6899L56.4892 56.1167C54.8935 54.8642 53.1829 53.8509 51.3954 53.0815L50.6046 54.9185ZM62.0243 66.1624C62.808 67.7272 63.4871 69.4355 64.0421 71.2871L65.9579 70.7129C65.3712 68.7555 64.6502 66.9393 63.8126 65.2668L62.0243 66.1624Z" fill="#EF6969"/>
<path d="M81.5794 53.0927C82.0805 52.8605 82.675 53.0784 82.9073 53.5794C83.1395 54.0805 82.9216 54.675 82.4206 54.9073L81.5794 53.0927ZM69.9634 71.2681C69.8153 71.8002 69.2639 72.1115 68.7319 71.9634C68.1998 71.8153 67.8885 71.2639 68.0366 70.7319L69.9634 71.2681ZM82.4206 54.9073C77.0045 57.4181 72.303 62.8624 69.9634 71.2681L68.0366 70.7319C70.5027 61.872 75.5358 55.8944 81.5794 53.0927L82.4206 54.9073Z" fill="#EF6969"/>
<defs>
<filter id="filter0_d" x="0" y="0" width="125" height="125" filterUnits="userSpaceOnUse" color-interpolation-filters="sRGB">
<feFlood flood-opacity="0" result="BackgroundImageFix"/>
<feColorMatrix in="SourceAlpha" type="matrix" values="0 0 0 0 0 0 0 0 0 0 0 0 0 0 0 0 0 0 127 0"/>
<feOffset dx="-5" dy="5"/>
<feGaussianBlur stdDeviation="7.5"/>
<feColorMatrix type="matrix" values="0 0 0 0 0 0 0 0 0 0 0 0 0 0 0 0 0 0 0.07 0"/>
<feBlend mode="normal" in2="BackgroundImageFix" result="effect1_dropShadow"/>
<feBlend mode="normal" in="SourceGraphic" in2="effect1_dropShadow" result="shape"/>
</filter>
</defs>
</svg>
