<svg width="170" height="187" viewBox="0 0 170 187" fill="none" xmlns="http://www.w3.org/2000/svg">
<path d="M2.67029e-05 180.465H155.309C133.791 172.136 115.397 171.499 108.89 172.222C80.778 148.275 69.9902 162.244 68.1103 172.222C60.8221 162.505 49.7451 169.041 45.1177 173.524C40.3456 164.847 30.8015 166.583 23.4265 172.222C17.5265 176.734 5.35052 179.597 2.67029e-05 180.465Z" fill="white"/>
<path d="M93 180.5L97.6088 160.5L87.6088 155L84.6088 174C82.1088 175 77.8323 177.233 78.1088 179C78.5 181.5 88.3333 180.833 93 180.5Z" fill="#EF6969"/>
<path d="M165.633 171.413L155.701 154.039L144.624 156.788L155.318 172.776C154.161 175.208 152.826 178.368 154.5 179C156.174 179.632 162.432 174.825 165.633 171.413Z" fill="#EF6969"/>
<path d="M98.5 156.5L87.6088 157.5L96.3396 166L98.5 156.5Z" fill="#D73B45"/>
<path d="M155.701 154.039L146.321 158.624L158.502 158.939L155.701 154.039Z" fill="#D73B45"/>
<path d="M141.609 160.5C154.409 160.5 161.275 148.5 163.109 142.5C142.309 126.9 137.775 115.333 138.109 111.5C137.709 78.7 133.942 69.1667 132.109 68.5C127.942 75.3333 118.809 92.1 115.609 104.5C112.409 116.9 131.609 147 141.609 160.5Z" fill="#3452CE"/>
<path d="M105.109 158.5C101.609 112 112.109 116 135.109 72.4999C131.609 64.8333 118.06 52.1483 105.109 72.4999C91.1088 94.4999 79.5 127.5 81 154C88.6 160.4 100.275 159.5 105.109 158.5Z" fill="#4D70F6"/>
<path d="M71.6274 66.4741C73.0966 61.4222 79.9245 56.5485 83.1549 54.7431L89.1103 59.7214C82.6705 64.0772 70.1582 71.526 71.6274 66.4741Z" fill="#EF6969"/>
<path d="M161.609 85.5C161.209 84.3 156.775 77.3333 154.609 74C149.109 70.1667 139.809 65.2 146.609 76C155.109 89.5 162.109 87 161.609 85.5Z" fill="#EF6969"/>
<path d="M80.4039 52.3595C82.8987 58.3741 89.1443 63.5978 91.9552 65.4578C93.9455 61.9722 98.4324 53.9129 100.458 49.5613C102.484 45.2097 119.694 33.5135 128.046 28.2093C128.075 26.5681 126.882 23.3654 121.88 23.6843C115.627 24.083 110.376 28.2565 103.014 36.9629C97.124 43.928 85.4865 50.1294 80.4039 52.3595Z" fill="#F095E5"/>
<path d="M96.4723 51.0152C101.91 41.224 107.294 38.0364 109.75 37.893C113.109 48.5 92.5117 66.8449 90.8376 65.4893C89.2355 64.192 86.6954 61.3551 85.3043 59.6044C89.1416 60.8392 93.0649 57.1503 96.4723 51.0152Z" fill="#D87DD1"/>
<path d="M103.609 70.5C114.009 76.5 135.609 75 145.109 73.5L121.609 24.5C104.009 34.9 102.275 59.5 103.609 70.5Z" fill="#F095E5"/>
<path d="M126.109 34.5C127.709 34.9 138.109 60.8333 142.609 73.5C136.609 75 121.609 75 114.609 74C116.109 70 117.145 70.5124 122.109 66C127.609 61 123.609 49.5 122.109 42C120.609 34.5 124.109 34 126.109 34.5Z" fill="#D87DD1"/>
<path d="M138.109 77.5002C148.909 78.3002 157.275 73.8335 160.109 71.5002C155.609 67.1668 145.509 55.3002 141.109 42.5002C135.609 26.5002 128.109 25.0002 127.109 24.5002C126.109 24.0002 118.109 22 120.609 30.0002C122.461 35.9272 132.942 64.1669 138.109 77.5002Z" fill="#F095E5"/>
<path d="M120.806 17.1155C122.346 18.8611 121.57 20.4978 120.806 20.9999C122.201 22.8739 125.109 28 117.609 31C114.552 32.2228 115.193 29.2274 114.816 24.9886C115.132 25.0542 114.687 24.8431 110.374 23.4741C106.061 22.1051 109.21 15.704 111.059 12.5205C111.096 12.6603 111.547 14.2761 113.232 17.3297C114.097 18.8957 115.466 18.9812 115.885 18.87C114.91 16.8847 118.88 14.9334 120.806 17.1155Z" fill="#EF6969"/>
<path d="M120.386 17.2265C122.109 19.4999 120.331 21.4999 120.109 21.4999C122.231 22.7321 127.152 19.8313 126.793 16.7849C126.433 13.7384 124.316 12.2651 123.734 8.38006C123.152 4.49498 118.995 5.82139 117.008 5.5927C115.021 5.36402 112.619 4.08077 110.339 6.42737C107.519 9.33013 109.027 12.76 110.134 14.112C110.796 13.7868 112.236 13.9134 112.702 17.0215C113.167 20.1295 115.446 20.0336 116.527 19.5971C115.44 17.1925 118.859 15.2103 120.386 17.2265Z" fill="black"/>
<path d="M123.673 8.90667C123.422 11.0848 124.985 13.0538 127.163 13.3046C129.341 13.5553 131.31 11.9928 131.561 9.81465C131.812 7.63648 130.249 5.66747 128.071 5.41674C125.893 5.16601 123.924 6.7285 123.673 8.90667Z" fill="black"/>
<path d="M80.9737 176L80.986 175.724C80.9942 175.511 81.1984 170.427 79.7279 169.251C79.4257 169.008 79.0744 168.943 78.6822 169.05C78.2819 169.267 78.0655 169.621 78.0123 170.115C77.8285 171.834 79.7402 174.927 80.7654 175.819L80.9737 176ZM79.0254 169.263C79.2133 169.263 79.3971 169.329 79.5605 169.461C80.7328 170.398 80.7491 174.301 80.7287 175.416C79.6993 174.347 78.1226 171.62 78.2779 170.144C78.3228 169.736 78.4862 169.457 78.7844 169.296C78.8661 169.276 78.9437 169.263 79.0254 169.263Z" fill="black"/>
<path d="M153.004 177.554L152.918 177.292C152.85 177.089 151.237 172.264 149.445 171.686C149.076 171.566 148.725 171.63 148.396 171.869C148.099 172.214 148.022 172.622 148.148 173.102C148.586 174.775 151.47 176.988 152.745 177.459L153.004 177.554ZM148.793 171.947C148.968 171.88 149.163 171.877 149.363 171.942C150.792 172.402 152.192 176.046 152.568 177.095C151.226 176.46 148.785 174.47 148.406 173.035C148.304 172.638 148.357 172.319 148.579 172.063C148.648 172.015 148.716 171.976 148.793 171.947Z" fill="black"/>
<path d="M80.1184 175C80.777 175 81.3537 174.948 81.7341 174.853L82 174.785L81.7791 174.622C81.6073 174.495 77.5661 171.538 75.7704 172.062C75.4023 172.17 75.1446 172.412 75.0096 172.786C74.9564 173.227 75.1242 173.593 75.4964 173.907C76.4208 174.686 78.5109 175 80.1184 175ZM81.3823 174.658C79.9221 174.889 76.793 174.65 75.6763 173.716C75.3696 173.458 75.2346 173.171 75.2714 172.845C75.3696 172.579 75.5618 172.396 75.8481 172.313C77.2838 171.895 80.4825 174.026 81.3823 174.658Z" fill="black"/>
<path d="M151.85 176.923C152.466 176.689 152.986 176.436 153.308 176.212L153.533 176.054L153.269 175.98C153.063 175.922 148.235 174.591 146.742 175.719C146.436 175.95 146.281 176.268 146.288 176.665C146.395 177.097 146.681 177.379 147.141 177.54C148.281 177.941 150.347 177.493 151.85 176.923ZM152.91 176.155C151.627 176.888 148.617 177.775 147.241 177.298C146.863 177.166 146.635 176.946 146.554 176.628C146.551 176.344 146.666 176.105 146.904 175.925C148.098 175.026 151.845 175.883 152.91 176.155Z" fill="black"/>
<path d="M73 180.861C73 180.861 76.4076 176.351 79.6348 175.064C82.8619 173.778 84.2508 171 84.2508 171L94.8679 173.021C94.8679 173.021 96.4151 177.562 95.892 181L73 180.861Z" fill="black"/>
<path d="M155.5 180.5L146 180.5C146 180.5 149.5 177.5 152.488 177.12C152 174 153.5 173 153.685 171.087L163.346 166.241C163.346 166.241 167.333 168.908 169.007 171.956L155.5 180.5Z" fill="black"/>
</svg>
