<svg width="197" height="163" viewBox="0 0 197 163" fill="none" xmlns="http://www.w3.org/2000/svg">
<path d="M178.361 154.42H23.0526C44.5702 146.09 62.9644 145.454 69.4717 146.177C97.5835 122.23 108.371 136.199 110.251 146.177C117.539 136.459 128.616 142.996 133.244 147.478C138.016 138.802 147.56 140.537 154.935 146.177C160.835 150.689 173.011 153.552 178.361 154.42Z" fill="white"/>
<path d="M181.92 137.5L163.818 122.522L157.803 129.514L176.081 143.999L181.92 137.5Z" fill="#EF6969"/>
<path d="M164.309 122.89C165.584 126.915 164.797 132.461 164.244 134.731L157.803 129.514L164.309 122.89Z" fill="#D75F36"/>
<path d="M17.9202 73.5L32.8298 90.3115L39.9251 84.4187L25.4202 68L19.4202 68L17.9202 73.5Z" fill="#EF6969"/>
<path d="M29.9202 87C29.3336 82.8188 29.997 76.6461 30.9203 74.5L37.1809 81.4497L29.9202 87Z" fill="#D75F36"/>
<path d="M44.3236 71.1881C38.1294 64.6211 30.8215 84.0671 25.1714 99.7711C75.8963 135.926 87.1887 125.991 100.513 96.4854L121.798 107.475L144.852 146.258C160.266 138.803 164.656 126.346 164.923 121.05C160.607 112.9 125.55 81.5246 108.561 66.8554C100.658 67.9814 88.2123 66.5412 82.9773 65.6804L70.0827 95.1247L44.3236 71.1881Z" fill="#5AC572"/>
<path d="M144.852 146.258C160.266 138.803 164.656 126.346 164.923 121.05C161.933 115.404 144.189 98.6114 127.92 83.9486C120.705 77.4459 113.78 71.3622 108.561 66.8554C108.561 76 101.92 92.5 100.513 96.4854L121.798 107.475L144.852 146.258Z" fill="#4AA359"/>
<path d="M4.59925 35.3524C9.89698 32.5526 23.9279 27.6905 37.6696 30.6403C54.8468 34.3277 50.621 13.8959 73.9345 14.5179C97.248 15.1399 117.351 41.4495 116.71 54.6721" stroke="#F7B944" stroke-width="5" stroke-linecap="round"/>
<path d="M51.8874 47.4575L101.529 26.7999L100.418 43.6099C84.1178 47.1011 50.9893 54.0709 48.8788 54.0211C46.2407 53.9587 41.3339 50.2758 44.7086 49.3568C47.4083 48.6215 50.6194 47.7842 51.8874 47.4575Z" fill="#D75F36"/>
<path d="M23.737 46.6484L73.3781 25.9908L72.2677 42.8008C55.9673 46.292 22.8388 53.2618 20.7283 53.212C18.0902 53.1497 13.1834 49.4668 16.5581 48.5477C19.2578 47.8125 22.4689 46.9752 23.737 46.6484Z" fill="#EF6969"/>
<path d="M69.6241 58.0765C79.7848 55.577 85.2736 44.8915 86.7478 39.8612C87.9566 33.9923 91.6734 25.8379 96.8708 40.1716C102.068 54.5053 80.8719 58.0806 69.6241 58.0765Z" fill="#3452CE"/>
<path d="M114.586 42.9802C113.945 50.784 111.41 60.6689 109.976 65.9855C108.123 73.2608 48.6878 60.2576 71.88 56.953C90.4338 54.3093 95.2391 44.5684 95.3226 40.0284C89.1254 41.6417 75.2465 44.9047 69.3075 45.0498C61.8839 45.2312 61.6413 37.378 65.6925 31.9805C69.7437 26.583 72.6288 22.2281 90.9743 18.7377C109.32 15.2473 114.164 21.5683 115.573 28.3788C116.982 35.1894 115.387 33.2256 114.586 42.9802Z" fill="#4D70F6"/>
<path d="M100.806 15.5095C100.069 17.7179 102.175 18.9661 103.075 19.1301C102.522 21.3999 105.218 31.0945 109.267 31.8322C112.506 32.4223 110.701 24.4704 109.394 20.4207C109.128 20.6047 109.455 20.2367 112.892 17.2931C116.329 14.3494 110.931 9.68471 107.987 7.47498C108.008 7.61814 108.223 9.28194 107.863 12.7512C107.678 14.5303 106.451 15.1434 106.021 15.2046C106.145 12.996 101.727 12.749 100.806 15.5095Z" fill="#EF6969"/>
<path d="M101.236 15.4481C100.45 17.313 101.521 18.4749 102.155 18.8228C100.682 20.7856 97.0621 19.9866 96.2043 17.0414C95.3464 14.0962 96.9419 12.9925 95.9617 9.18831C94.9814 5.38415 98.4173 4.89459 99.7057 4.711L99.7058 4.711C100.994 4.52741 101.61 -0.380525 106.272 1.58443C110.001 3.15639 109.951 6.90293 109.459 8.57971C108.723 8.53854 107.447 9.21704 108.231 12.2604C109.015 15.3037 106.88 16.1046 105.714 16.1246C105.776 13.4865 102.218 13.1171 101.236 15.4481Z" fill="black"/>
<path d="M187.118 138.238L186.956 138.015C186.831 137.841 183.856 133.714 184.433 131.921C184.552 131.552 184.808 131.304 185.194 131.176C185.648 131.137 186.024 131.313 186.341 131.695C187.443 133.028 187.555 136.662 187.192 137.972L187.118 138.238ZM185.026 131.544C184.869 131.648 184.752 131.804 184.689 132.004C184.228 133.433 186.368 136.697 187 137.615C187.269 136.156 187.079 133.011 186.135 131.866C185.873 131.551 185.582 131.408 185.245 131.439C185.166 131.467 185.094 131.499 185.026 131.544Z" fill="black"/>
<path d="M187.28 136.932C186.73 137.295 186.221 137.57 185.851 137.7L185.592 137.791L185.686 137.533C185.759 137.332 187.498 132.636 189.285 132.083C189.651 131.969 190 132.029 190.319 132.266C190.607 132.605 190.669 133.002 190.531 133.47C190.19 134.63 188.62 136.045 187.28 136.932ZM186.037 137.344C187.382 136.73 189.86 134.805 190.276 133.41C190.389 133.025 190.344 132.712 190.133 132.46C189.905 132.292 189.643 132.246 189.358 132.334C187.931 132.778 186.439 136.32 186.037 137.344Z" fill="black"/>
<path d="M196.45 137.893C196.45 137.893 191.12 136.011 187.719 136.719C184.318 137.426 181.626 135.876 181.626 135.876L173.886 143.419C173.886 143.419 175.101 148.06 177.435 150.639L196.45 137.893Z" fill="black"/>
<path d="M14.0323 75.8878L14.1955 76.1101C14.321 76.2834 17.3138 80.3974 16.7441 82.1922C16.6275 82.5619 16.3719 82.8117 15.9864 82.9405C15.5325 82.9815 15.156 82.8076 14.8378 82.4267C13.7303 81.0991 13.6025 77.4655 13.9595 76.1539L14.0323 75.8878ZM16.153 82.5721C16.3093 82.4678 16.4256 82.311 16.4884 82.1108C16.9426 80.68 14.7887 77.4251 14.1528 76.5095C13.8906 77.9704 14.0936 81.1136 15.0426 82.2553C15.3061 82.569 15.5973 82.7108 15.9343 82.6786C16.0137 82.6503 16.0851 82.6175 16.153 82.5721Z" fill="black"/>
<path d="M13.8763 77.1944C14.424 76.8287 14.9323 76.5514 15.3017 76.4195L15.5603 76.328L15.4671 76.5862C15.3949 76.7874 13.6765 81.4913 11.8918 82.0521C11.526 82.1673 11.1771 82.1087 10.8573 81.8729C10.568 81.5355 10.5044 81.1382 10.6396 80.6703C10.9756 79.509 12.5395 78.0871 13.8763 77.1944ZM15.1173 76.7768C13.7748 77.396 11.3051 79.3321 10.8952 80.7291C10.7836 81.1143 10.8302 81.4273 11.0419 81.6779C11.2714 81.8449 11.5329 81.8902 11.8173 81.8007C13.2431 81.3505 14.7199 77.8022 15.1173 76.7768Z" fill="black"/>
<path d="M3.80071 73.8881C3.80071 73.8881 9.13954 75.7469 12.5375 75.0243C15.9355 74.3017 18.6335 75.841 18.6335 75.841L26.3406 68.2643C26.3406 68.2643 25.1057 63.6289 22.7613 61.06L3.80071 73.8881Z" fill="black"/>
<path d="M39.1707 65.293C44.0579 66.7877 56.1276 67.4342 65.3093 58.063C76.7863 46.3489 86.684 51.1741 90.5 57.5C100.117 73.4426 119.5 65.293 116.5 51.5" stroke="#F7B944" stroke-width="5" stroke-linecap="round"/>
</svg>
