<svg width="997" height="409" viewBox="0 0 997 409" fill="none" xmlns="http://www.w3.org/2000/svg">
<path d="M155.626 125.648C141.041 142.923 126.537 160.207 111.952 177.482" stroke="black" stroke-miterlimit="10"/>
<path d="M155.626 151.91C141.041 169.185 126.537 186.469 111.952 203.743" stroke="black" stroke-miterlimit="10"/>
<path d="M962.41 265.923C948.857 281.974 935.396 298.024 921.843 314.075" stroke="black" stroke-miterlimit="10"/>
<path d="M971.306 233.187C945.814 263.04 920.312 292.901 894.902 322.671" stroke="black" stroke-miterlimit="10"/>
<path d="M131.538 92.2961L82.1747 151.992" stroke="black" stroke-miterlimit="10"/>
<path d="M753.543 80.2991L698.301 146.886" stroke="black" stroke-miterlimit="10"/>
<path d="M386.469 333.762C386.469 333.762 383.072 325.846 390.392 326.435C397.712 327.024 394.903 319.108 394.903 319.108" stroke="black" stroke-miterlimit="10"/>
<path d="M965.137 397.864C965.137 397.864 953.514 370.742 978.689 372.664C1003.86 374.586 994.162 347.464 994.162 347.464" stroke="#F7B944" stroke-miterlimit="10"/>
<path d="M663.206 220.338C663.206 220.338 658.197 208.658 668.995 209.529C679.793 210.399 675.644 198.719 675.644 198.719" stroke="black" stroke-miterlimit="10"/>
<path d="M277.199 395.316C277.199 395.316 273.801 387.4 281.121 387.989C288.441 388.579 285.633 380.662 285.633 380.662" stroke="black" stroke-miterlimit="10"/>
<path d="M754.323 395.316C754.323 395.316 750.925 387.4 758.245 387.989C765.565 388.579 762.757 380.662 762.757 380.662" stroke="black" stroke-miterlimit="10"/>
<path d="M781.083 345.251C781.083 345.251 777.686 337.335 785.006 337.924C792.325 338.514 789.517 330.597 789.517 330.597" stroke="black" stroke-miterlimit="10"/>
<path d="M252.504 336.047C252.504 336.047 250.347 331.014 254.986 331.341C259.687 331.667 257.857 326.635 257.857 326.635" stroke="black" stroke-miterlimit="10"/>
<path d="M448.814 142.615C448.814 142.615 446.658 137.582 451.296 137.909C455.934 138.235 454.168 133.202 454.168 133.202" stroke="#3452CE" stroke-miterlimit="10"/>
<path d="M549.515 136.013C549.515 136.013 546.118 128.097 553.437 128.686C560.757 129.276 557.949 121.359 557.949 121.359" stroke="black" stroke-miterlimit="10"/>
<path d="M458.616 382.621C458.616 382.621 455.219 374.705 462.538 375.294C469.858 375.884 467.05 367.967 467.05 367.967" stroke="black" stroke-miterlimit="10"/>
<path d="M389.731 238.583C389.731 238.583 376.658 208.033 404.959 210.191C433.323 212.349 422.407 181.799 422.407 181.799" stroke="#F7B944" stroke-miterlimit="10"/>
<path d="M360.135 128.024C360.135 128.024 347.062 97.4738 375.363 99.632C403.727 101.79 392.811 71.2397 392.811 71.2397" stroke="#F7B944" stroke-miterlimit="10"/>
<path d="M231.052 133.583C231.052 133.583 213.794 93.2391 251.163 96.0865C288.622 98.9339 274.209 58.5898 274.209 58.5898" stroke="black" stroke-miterlimit="10"/>
<path d="M899.349 258.324C899.349 258.324 880.063 213.256 921.816 216.439C963.66 219.622 947.562 174.553 947.562 174.553" stroke="black" stroke-miterlimit="10"/>
<path d="M4.98216 353.893C4.98216 353.893 -12.3298 313.431 25.2383 316.288C62.8063 319.144 48.348 278.682 48.348 278.682" stroke="#3452CE" stroke-miterlimit="10"/>
<path d="M474.823 222.95C473.056 167.87 471.29 112.726 469.532 57.6467C520.045 81.1966 570.496 104.747 621.009 128.296L474.823 222.95Z" stroke="#F7B944" stroke-width="5" stroke-miterlimit="10"/>
<path d="M493.185 85.767C492.597 68.2383 492.071 50.7006 491.482 33.2354C507.562 40.6893 523.569 48.2159 539.649 55.6699L493.185 85.767Z" stroke="#3452CE" stroke-miterlimit="10"/>
<path d="M235.826 362.082C235.237 344.553 234.712 327.015 234.123 309.55C250.203 317.004 266.21 324.531 282.29 331.985L235.826 362.082Z" stroke="#3452CE" stroke-miterlimit="10"/>
<path d="M3.2519 363.333C2.47282 340.119 1.78433 316.895 1.00525 293.762C22.2941 303.638 43.5014 313.604 64.7903 323.479L3.2519 363.333Z" stroke="#F7B944" stroke-miterlimit="10"/>
<path d="M718.458 185.317C717.307 149.86 716.157 114.35 715.07 78.9023C747.555 94.037 780.096 109.235 812.582 124.37L718.458 185.317Z" stroke="#3452CE" stroke-miterlimit="10"/>
<path d="M916.154 355.09C915.348 329.654 914.551 304.127 913.672 278.691C936.999 289.609 960.335 300.437 983.662 311.355L916.154 355.09Z" stroke="#3452CE" stroke-miterlimit="10"/>
<path d="M195.821 102.615C195.558 95.7055 195.386 88.8772 195.132 81.9673C201.428 84.9054 207.734 87.8434 214.03 90.7815L195.821 102.615Z" stroke="black" stroke-miterlimit="10"/>
<path d="M398.69 184.22C398.491 178.987 398.364 173.818 398.165 168.586C402.939 170.808 407.704 173.039 412.478 175.26L398.69 184.22Z" stroke="black" stroke-miterlimit="10"/>
<path d="M390.129 391.517C389.93 384.453 389.676 377.325 389.477 370.261C395.945 373.272 402.486 376.346 408.954 379.357L390.129 391.517Z" stroke="black" stroke-miterlimit="10"/>
<path d="M598.262 398.191C597.872 385.958 597.474 373.725 597.084 361.492C608.263 366.725 619.496 371.957 630.675 377.189L598.262 398.191Z" stroke="black" stroke-miterlimit="10"/>
<path d="M797.906 262.913C797.779 257.944 797.58 252.974 797.453 247.996C802.028 250.091 806.539 252.249 811.114 254.344L797.906 262.913Z" stroke="black" stroke-miterlimit="10"/>
<path d="M342.098 283.851C341.971 280.577 341.899 277.313 341.772 274.039C344.779 275.409 347.787 276.85 350.786 278.229L342.098 283.851Z" stroke="black" stroke-miterlimit="10"/>
<path d="M761.044 299.62C759.323 256.474 758.454 213.337 756.732 170.191C796.384 188.309 836.036 207.298 875.687 225.416L761.044 299.62Z" stroke="#F7B944" stroke-miterlimit="10"/>
<path d="M624.669 200.968C624.542 197.695 624.47 194.43 624.343 191.157C627.35 192.526 630.358 193.968 633.357 195.346L624.669 200.968Z" stroke="black" stroke-miterlimit="10"/>
<path d="M184.144 243.57C182.051 178.951 179.967 114.341 177.875 49.7212C237.085 77.379 296.295 104.928 355.505 132.586L184.144 243.57Z" stroke="#3452CE" stroke-miterlimit="10"/>
<path d="M131.347 226.468C130.396 195.627 129.363 164.786 128.412 133.855C156.722 147.076 184.941 160.207 213.251 173.419L131.347 226.468Z" stroke="#F7B944" stroke-miterlimit="10"/>
<path d="M403.917 356.786C392.485 370.524 380.98 384.199 369.547 397.928" stroke="black" stroke-miterlimit="10"/>
<path d="M403.917 367.378C392.485 381.116 380.98 394.791 369.547 408.52" stroke="#3452CE" stroke-miterlimit="10"/>
<path d="M129.617 304.59C114.47 322.78 99.2329 340.889 84.0861 359.089" stroke="#3452CE" stroke-miterlimit="10"/>
<path d="M120.966 336.038C105.819 354.228 90.5815 372.338 75.4347 390.537" stroke="#F7B944" stroke-miterlimit="10"/>
<path d="M620.284 359.27C608.852 373.008 597.347 386.683 585.914 400.412" stroke="#F7B944" stroke-miterlimit="10"/>
<path d="M718.068 106.451C701.191 126.718 684.223 146.886 667.355 167.162" stroke="#3452CE" stroke-miterlimit="10"/>
<path d="M821.423 57.0391C805.126 76.3451 788.928 95.6421 772.64 114.948" stroke="black" stroke-miterlimit="10"/>
<path d="M704.525 328.394L699.298 343.247H678.453V328.457L704.525 328.394Z" fill="#EF6969"/>
<path d="M600.554 298.369C577.027 255.722 557.034 289.673 557.034 289.673L450.843 314.918C620.556 109.389 638.792 324.531 638.792 324.531C638.792 324.531 624.08 341.089 600.554 298.369Z" fill="#5AC572"/>
<path d="M576.828 276.851C564.997 276.062 557.025 289.609 557.025 289.609C521.667 298.052 486.255 306.485 450.834 314.855C464.948 291.042 490.767 257.164 533.498 238.057C533.96 262.06 552.522 271.745 576.828 276.851Z" fill="#4AA359"/>
<path d="M681.913 347.563C607.348 346.974 532.783 346.384 458.29 345.795C443.65 344.09 426.076 339.71 417.379 328.393C427.896 317.729 439.728 306.548 453.063 295.295C469.985 280.967 486.454 268.87 501.81 258.732C509.655 261.353 517.491 263.964 525.336 266.585L690.673 326.698" fill="#5AC572"/>
<path d="M694.986 322.309C691.788 322.046 688.581 321.719 685.383 321.456C682.185 330.153 678.978 338.858 675.78 347.618C679.241 347.618 682.774 347.618 686.234 347.618L694.986 322.309Z" fill="#4AA359"/>
<path d="M591.404 80.1447C591.404 80.1447 635.775 27.876 641.854 17.4114C647.933 6.94677 648.848 11.3267 648.848 11.3267C648.848 11.3267 654.075 0.862061 657.535 0.862061C660.996 0.862061 653.16 13.9474 653.16 13.9474C654.201 12.3786 656.358 11.7257 657.273 12.705C657.988 13.494 658.387 15.7791 657.535 17.4114C658.65 16.4955 660.153 15.5796 660.932 16.1056C664.529 18.2003 653.16 46.0032 641.854 66.216C635.839 77.0071 626.689 91.3347 613.1 106.905" fill="#EF6969"/>
<path d="M417.315 328.393C416.926 327.024 416.011 324.603 413.855 322.309C412.614 321.066 411.373 320.214 410.394 319.688C362.562 317.92 502.607 143.721 502.607 143.721L528.742 121.939C547.893 121.087 564.426 104.538 570.505 97.5371C573.576 94.0731 576.194 92.5043 578.024 91.8424C579.265 91.3889 580.379 91.4524 580.968 91.3889C581.167 90.736 581.756 89.8836 581.819 88.7683C582.272 82.883 585.352 80.3984 587.047 79.156C592.274 76.5354 594.892 86.1566 600.119 87.8524C602.402 90.0106 603.842 90.4731 605.346 92.2323C605.735 92.6857 607.176 94.853 609.984 99.0968C611.751 101.718 613.119 103.876 614.034 105.309C614.622 107.403 614.36 108.773 614.034 109.688C612.992 112.563 609.984 113.152 605.735 116.952C604.295 118.258 603.317 119.373 602.664 120.09C600.046 130.554 587.898 141.019 587.898 141.019C527.909 191.646 520.064 242.146 520.979 254.316C521.83 266.549 513.133 270.013 513.133 270.013C497.778 279.299 482.351 288.593 466.996 297.879C450.445 308.117 433.912 318.255 417.315 328.393Z" fill="#774AF6"/>
<path d="M435.678 266.576C415.096 291.568 394.505 316.487 373.922 341.479C366.077 348.479 352.163 344.943 343.466 345.859C334.778 346.775 332.16 345.006 332.16 344.09C332.16 343.701 333.528 343.438 334.778 343.238C336.608 342.649 339.616 341.733 343.466 340.617C348.303 339.248 351.764 338.396 352.226 338.26C366.929 334.469 385.228 294.433 385.228 294.433C392.222 278.473 399.152 262.514 406.137 246.554C415.938 253.237 425.804 259.902 435.678 266.576Z" fill="#EF6969"/>
<path d="M408.682 237.794C407.115 241.131 405.086 244.468 406.064 246.491C408.61 251.786 427.498 265.588 435.669 266.504C437.889 266.767 440.181 263.366 442.663 260.419C444.819 257.871 446.196 255.386 447.038 253.419C447.038 253.419 457.493 250.798 463.571 238.638C469.65 226.477 491.41 209.919 502.715 202.918C514.021 195.918 547.938 150.65 509.709 144.565C471.48 138.48 436.584 192.445 436.584 192.445C436.584 192.445 425.278 211.615 418.285 217.69C411.291 223.775 413.058 230.775 413.058 230.775C411.69 232.498 410.059 234.847 408.682 237.794Z" fill="#774AF6"/>
<path d="M710.667 347.563C706.291 347.563 701.979 347.563 697.595 347.563C697.069 346.91 696.48 346.194 695.891 345.469C695.629 345.142 695.303 344.816 695.04 344.553L701.707 326.108C701.707 326.108 707.261 326.435 712.162 322.572C717.063 318.645 727.127 317.403 727.127 317.403C721.646 327.478 716.157 337.552 710.667 347.563Z" fill="black"/>
<path d="M709.752 325.709C709.688 325.383 708.773 317.14 710.993 315.045C711.446 314.655 712.035 314.456 712.696 314.592C713.348 314.855 713.738 315.444 713.874 316.224C714.399 318.972 711.654 324.204 710.087 325.836L709.761 326.163V325.709H709.752ZM711.319 315.381C709.489 317.013 709.951 323.361 710.141 325.192C711.709 323.361 713.928 318.718 713.475 316.36C713.348 315.707 713.085 315.245 712.623 315.054C712.497 315.054 712.361 314.991 712.297 314.991C711.908 314.982 711.582 315.118 711.319 315.381Z" fill="black"/>
<path d="M711.383 325.582C711.056 325.383 703.8 321.529 703.347 318.455C703.284 317.802 703.474 317.276 703.999 316.75C704.588 316.36 705.241 316.36 706.029 316.686C708.574 317.865 711.319 323.098 711.718 325.256L711.781 325.709L711.383 325.582ZM704.262 317.14C703.873 317.53 703.737 317.929 703.809 318.382C704.135 320.803 709.625 324.077 711.192 324.92C710.54 322.563 708.058 318.119 705.829 317.14C705.503 317.013 705.24 316.94 704.978 316.94C704.724 316.949 704.461 317.013 704.262 317.14Z" fill="black"/>
<path d="M514.882 149.878C512.726 147.593 510.434 146.278 508.803 145.499V121.096L541.869 115.011C541.869 115.011 543.635 130.708 543.635 139.414C543.635 148.119 535.79 145.499 535.79 145.499C535.79 145.499 534.223 148.636 533.308 155.637C533.245 156.027 533.245 156.426 533.181 156.816C532.33 164.669 520.109 159.436 520.109 159.436C519.583 157.468 518.342 153.478 514.882 149.878Z" fill="#EF6969"/>
<path d="M542.72 106.315C537.167 106.769 529.911 107.884 521.812 110.695C515.018 113.053 509.528 115.927 505.279 118.548L507.897 126.401C513.912 125.812 521.685 124.442 530.309 121.169C535.926 119.011 540.637 116.526 544.424 114.168C543.826 111.547 543.237 108.927 542.72 106.315Z" fill="#F7B944"/>
<path d="M508.74 119.391C508.54 118.475 507.236 111.148 512.2 105.454C515.987 101.074 521.087 100.421 522.654 100.221C532.52 99.1059 539.45 107.349 540.039 108.074C529.648 111.801 519.194 115.601 508.74 119.391Z" fill="#F7B944"/>
<path d="M685.31 350.375C685.184 350.311 685.111 350.175 685.184 350.112L693.618 325.583C693.681 325.456 693.817 325.383 693.88 325.456C694.007 325.519 694.08 325.655 694.007 325.719L685.573 350.248C685.573 350.311 685.446 350.375 685.374 350.375C685.374 350.438 685.374 350.438 685.31 350.375Z" fill="black"/>
<path d="M677.076 344.743C676.949 344.68 676.876 344.544 676.949 344.48L685.637 320.078C685.7 319.951 685.836 319.879 685.899 319.951C686.026 320.015 686.099 320.151 686.026 320.214L677.338 344.616C677.275 344.68 677.212 344.743 677.139 344.743C677.076 344.743 677.076 344.743 677.076 344.743Z" fill="black"/>
<path d="M596.83 347.165L503.639 346.448C503.513 346.448 503.44 346.385 503.44 346.249C503.44 346.113 503.504 346.049 503.639 346.049L596.83 346.766C596.957 346.766 597.03 346.829 597.03 346.965C597.093 347.038 596.957 347.165 596.83 347.165Z" fill="black"/>
<path d="M587.943 282.146C587.88 282.083 578.794 272.924 568.077 279.136C568.013 279.199 567.814 279.136 567.814 279.072C567.751 279.009 567.814 278.809 567.877 278.809C578.857 272.398 588.134 281.82 588.269 281.883C588.333 281.947 588.333 282.083 588.269 282.21C588.206 282.273 588.206 282.273 588.143 282.273C588.07 282.21 588.007 282.146 587.943 282.146Z" fill="black"/>
<path d="M615.646 252.185C615.583 252.122 610.482 242.5 600.227 234.983C590.752 228.046 574.871 221.444 552.848 229.615C552.722 229.678 552.586 229.615 552.586 229.488C552.522 229.361 552.586 229.225 552.713 229.225C574.862 220.982 590.878 227.656 600.481 234.657C610.808 242.247 616.036 251.922 616.099 251.995C616.162 252.058 616.099 252.258 616.036 252.258H615.972C615.709 252.321 615.646 252.249 615.646 252.185Z" fill="black"/>
<path d="M504.554 297.906C502.725 301.633 500.242 304.055 498.539 305.496C497.362 305.433 495.341 305.107 493.113 303.991C490.893 302.876 489.516 301.443 488.737 300.527C491.419 299.611 498.802 296.601 503.241 288.884C504.872 286.073 505.66 283.388 506.113 281.23C506.647 283.452 508.151 290.589 504.554 297.906Z" fill="#4AA359"/>
<path d="M496.057 307.201C495.994 307.138 496.057 306.939 496.12 306.939C496.247 306.875 510.697 298.959 505.596 280.188C505.596 280.061 505.66 279.925 505.723 279.925C505.786 279.925 505.986 279.988 505.986 280.052C511.213 299.149 496.447 307.201 496.311 307.328H496.247C496.193 307.265 496.12 307.265 496.057 307.201Z" fill="black"/>
<path d="M571.863 283.715L546.706 274.556C546.58 274.492 546.507 274.356 546.58 274.293C546.643 274.166 546.779 274.093 546.842 274.166L571.999 283.325C572.126 283.388 572.199 283.524 572.126 283.588C572.063 283.651 571.999 283.715 571.927 283.715C571.927 283.715 571.863 283.715 571.863 283.715Z" fill="black"/>
<path d="M666.685 332.583L513.505 329.119C513.441 329.119 503.703 329.509 492.198 327.75C473.047 324.803 463.897 318.265 459.585 313.295C459.522 313.232 459.522 313.096 459.585 312.969C459.649 312.906 459.784 312.906 459.911 312.969C464.16 317.875 473.246 324.35 492.261 327.297C503.694 329.065 513.369 328.666 513.496 328.666L666.676 332.13C666.803 332.13 666.875 332.193 666.875 332.329C666.884 332.447 666.821 332.583 666.685 332.583Z" fill="black"/>
<path d="M488.085 294.905C488.085 293.79 488.937 292.946 490.042 292.946C491.156 292.946 491.999 293.799 491.999 294.905C491.999 296.02 491.147 296.864 490.042 296.864C488.937 296.864 488.085 295.948 488.085 294.905ZM488.547 294.905C488.547 295.757 489.199 296.41 490.051 296.41C490.902 296.41 491.555 295.694 491.555 294.905C491.555 294.053 490.839 293.4 490.051 293.4C489.199 293.4 488.547 294.053 488.547 294.905Z" fill="black"/>
<path d="M406.272 319.434C403.854 318.582 401.96 316.487 400.783 313.223C400.719 313.096 400.783 312.96 400.909 312.96C401.036 312.896 401.172 312.96 401.172 313.087C402.286 316.288 404.044 318.319 406.399 319.035C410.512 320.405 415.087 317.403 415.159 317.403L513.514 261.67C513.577 261.607 513.777 261.67 513.777 261.734C513.84 261.797 513.777 261.997 513.713 261.997L415.359 317.729C415.159 317.856 412.161 319.824 408.755 319.824C407.903 319.824 407.052 319.697 406.272 319.434Z" fill="black"/>
<path d="M419.336 324.53C418.747 321.456 417.506 319.035 415.549 317.33C415.486 317.267 415.422 317.131 415.549 317.004C415.612 316.94 415.748 316.877 415.875 317.004C417.904 318.772 419.272 321.257 419.861 324.458C419.861 324.585 419.798 324.657 419.662 324.721C419.662 324.721 419.662 324.721 419.598 324.721C419.472 324.73 419.336 324.666 419.336 324.53Z" fill="black"/>
<path d="M424.563 318.781C424.499 317.929 424.3 317.077 423.974 316.297C423.521 315.317 422.86 314.465 422.017 313.812C421.954 313.748 421.89 313.612 421.954 313.486C422.017 313.422 422.153 313.359 422.28 313.422C423.195 314.138 423.91 314.991 424.373 316.043C424.762 316.895 424.961 317.748 425.025 318.663C425.025 318.79 424.961 318.863 424.825 318.863C424.699 318.972 424.563 318.908 424.563 318.781Z" fill="black"/>
<path d="M441.096 309.16C441.032 308.308 440.833 307.456 440.507 306.676C440.054 305.696 439.392 304.844 438.55 304.191C438.487 304.128 438.423 303.992 438.487 303.865C438.55 303.801 438.686 303.738 438.813 303.801C439.728 304.518 440.443 305.37 440.905 306.422C441.295 307.274 441.494 308.127 441.558 309.043C441.558 309.17 441.494 309.242 441.358 309.242C441.168 309.423 441.096 309.296 441.096 309.16Z" fill="black"/>
<path d="M430.641 315.308C430.578 314.456 430.379 313.603 430.053 312.823C429.6 311.844 428.938 310.992 428.096 310.339C428.032 310.275 427.969 310.139 428.032 310.012C428.096 309.949 428.232 309.885 428.359 309.949C429.273 310.665 429.989 311.518 430.451 312.57C430.841 313.422 431.04 314.274 431.103 315.19C431.103 315.317 431.04 315.39 430.904 315.39C430.777 315.508 430.641 315.381 430.641 315.308Z" fill="black"/>
<path d="M446.332 303.665C445.743 302.423 445.154 301.57 444.565 301.044C444.502 300.981 444.502 300.845 444.565 300.718C444.629 300.655 444.765 300.655 444.891 300.718C445.544 301.244 446.132 302.16 446.785 303.466C446.848 303.593 446.785 303.729 446.721 303.729H446.658C446.459 303.801 446.395 303.801 446.332 303.665Z" fill="black"/>
<path d="M435.026 309.749C434.763 308.706 434.174 307.854 433.259 307.201C433.196 307.138 433.133 307.002 433.196 306.875C433.259 306.811 433.395 306.748 433.522 306.811C434.437 307.528 435.089 308.516 435.416 309.622C435.416 309.749 435.352 309.885 435.289 309.885H435.225C435.153 309.885 435.026 309.885 435.026 309.749Z" fill="black"/>
<path d="M451.16 299.484C450.961 298.695 450.118 297.779 450.118 297.779C450.055 297.716 450.055 297.58 450.118 297.453C450.182 297.389 450.318 297.389 450.445 297.453C450.508 297.516 451.423 298.496 451.622 299.348C451.622 299.475 451.559 299.611 451.423 299.611H451.36C451.233 299.611 451.16 299.548 451.16 299.484Z" fill="black"/>
<path d="M456.26 295.422L455.808 294.569C455.744 294.506 455.808 294.306 455.871 294.306C455.934 294.243 456.134 294.306 456.134 294.37L456.587 295.222C456.65 295.286 456.587 295.485 456.523 295.485C456.46 295.485 456.46 295.485 456.396 295.485C456.387 295.494 456.324 295.494 456.26 295.422Z" fill="black"/>
<path d="M648.259 311.518L586.702 289.147C586.575 289.083 586.503 288.947 586.575 288.884C586.639 288.757 586.775 288.684 586.838 288.757L648.395 311.128C648.521 311.191 648.594 311.327 648.521 311.391C648.458 311.454 648.395 311.518 648.322 311.518H648.259Z" fill="black"/>
<path d="M515.987 180.103C515.924 180.039 515.86 179.903 515.924 179.776C516.05 179.577 526.903 161.395 514.157 149.489C508.405 144.12 500.496 143.014 490.631 146.215C481.544 149.09 472.657 155.047 466.778 159.491C466.715 159.554 466.515 159.554 466.452 159.427C466.389 159.364 466.389 159.164 466.515 159.101C472.395 154.648 481.282 148.636 490.495 145.753C500.559 142.552 508.595 143.721 514.474 149.153C527.483 161.259 516.431 179.767 516.304 179.967C516.241 180.03 516.177 180.094 516.105 180.094C516.123 180.103 516.059 180.103 515.987 180.103Z" fill="black"/>
<path d="M419.399 240.215C414.951 236.615 412.668 232.689 412.668 228.635C412.605 222.487 417.633 218.107 417.633 218.034C417.832 217.835 418.158 217.508 418.547 217.119C419.725 215.94 421.419 214.171 422.407 213.002C423.648 211.433 432.408 198.737 432.471 198.674C432.535 198.611 432.671 198.547 432.797 198.611C432.861 198.674 432.924 198.81 432.861 198.937C432.535 199.463 424.037 211.696 422.733 213.328C421.754 214.57 419.988 216.339 418.874 217.518C418.484 217.907 418.158 218.234 417.959 218.433C417.895 218.497 412.994 222.75 413.121 228.708C413.185 232.634 415.404 236.425 419.725 239.961C434.165 251.668 446.123 259.648 457.828 246.499C457.891 246.436 458.027 246.436 458.154 246.499C458.217 246.563 458.217 246.699 458.154 246.826C453.778 251.732 449.33 253.826 444.755 253.826C436.919 253.69 428.621 247.669 419.399 240.215Z" fill="black"/>
<path d="M408.492 250.027C407.776 249.437 406.399 248.259 405.874 246.236C405.484 242.772 407.314 240.025 407.64 239.562C407.704 239.499 407.84 239.499 407.966 239.562C408.03 239.626 408.03 239.762 407.966 239.889C407.966 239.889 405.874 242.573 406.263 246.173C406.716 247.805 407.767 248.921 408.483 249.51C408.682 248.658 408.936 247.878 409.334 247.089C409.923 245.973 410.639 245.058 411.554 244.278C411.617 244.214 411.753 244.214 411.88 244.278C411.943 244.341 411.943 244.477 411.88 244.604C411.028 245.393 410.313 246.309 409.724 247.288C409.271 248.141 409.008 248.993 408.809 249.909C408.809 249.972 408.746 250.036 408.682 250.108H408.619C408.555 250.027 408.492 250.027 408.492 250.027Z" fill="black"/>
<path d="M435.479 266.839C435.026 266.775 434.564 266.639 434.111 266.513C433.984 266.449 433.912 266.313 433.984 266.25C434.048 266.123 434.184 266.05 434.247 266.123C434.636 266.322 435.099 266.386 435.488 266.449C437.445 266.449 439.084 264.817 440.262 263.438C443.134 259.974 446.54 254.153 447.192 253.037C447.256 252.91 447.392 252.91 447.455 252.974C447.582 253.037 447.582 253.173 447.518 253.237C446.866 254.352 443.469 260.237 440.525 263.701C439.338 265.134 437.635 266.839 435.479 266.839Z" fill="black"/>
<path d="M429.011 264.618L423.648 261.67C423.584 261.67 423.584 261.607 423.521 261.543C423.521 261.48 423.521 261.416 423.584 261.344C424.237 260.628 424.889 259.902 425.414 259.059C426.13 258.016 426.719 256.837 427.117 255.595C427.181 255.468 427.317 255.395 427.38 255.468C427.507 255.531 427.579 255.667 427.507 255.731C427.054 256.973 426.465 258.152 425.74 259.267C425.215 259.984 424.699 260.709 424.037 261.362L429.002 264.11C429.717 263.656 430.306 263.067 430.832 262.477C431.484 261.761 431.946 260.909 432.272 259.993C432.335 259.866 432.471 259.793 432.535 259.866C432.662 259.929 432.734 260.065 432.662 260.129C432.272 261.108 431.81 261.961 431.158 262.749C430.569 263.466 429.917 264.055 429.129 264.581C429.074 264.545 429.074 264.618 429.011 264.618C429.074 264.618 429.074 264.618 429.011 264.618Z" fill="black"/>
<path d="M417.243 257.354L411.952 253.237C411.889 253.173 411.889 253.11 411.889 253.037C412.088 251.795 412.541 250.553 413.257 249.437C413.973 248.394 414.824 247.479 415.938 246.753C416.002 246.69 416.201 246.753 416.265 246.817C416.328 246.944 416.265 247.08 416.201 247.143C415.159 247.796 414.308 248.648 413.656 249.691C413.003 250.671 412.541 251.786 412.351 252.965L417.252 256.828C417.904 254.08 421.039 251.269 421.175 251.133C421.238 251.07 421.374 251.07 421.501 251.133C421.564 251.196 421.564 251.333 421.501 251.459C421.437 251.523 418.04 254.534 417.642 257.218C417.642 257.281 417.578 257.345 417.515 257.417H417.451C417.315 257.417 417.243 257.417 417.243 257.354Z" fill="black"/>
<path d="M409.796 235.699C409.67 235.636 409.597 235.5 409.67 235.436C410.059 234.52 412.415 231.183 412.867 230.657C412.931 230.594 413.067 230.594 413.194 230.657C413.32 230.721 413.257 230.857 413.194 230.984C412.741 231.437 410.385 234.711 410.059 235.563C409.996 235.627 409.932 235.69 409.86 235.69C409.796 235.763 409.796 235.763 409.796 235.699Z" fill="black"/>
<path d="M476.326 223.203C476.263 223.14 476.263 223.004 476.326 222.877C480.113 218.76 483.845 215.749 487.505 212.802C492.868 208.486 497.96 204.432 502.924 197.169C502.987 197.105 503.123 197.042 503.25 197.105C503.313 197.169 503.377 197.305 503.313 197.432C498.286 204.759 493.185 208.876 487.759 213.201C484.099 216.076 480.376 219.086 476.653 223.212C476.589 223.276 476.589 223.276 476.526 223.276C476.453 223.276 476.326 223.276 476.326 223.203Z" fill="black"/>
<path d="M608.979 114.359C608.915 114.232 608.979 114.096 609.105 114.096C609.169 114.096 613.218 112.264 614.133 109.126C614.586 107.685 614.332 106.252 613.345 104.674C613.019 104.148 612.756 103.695 612.43 103.169C608.834 97.347 605.11 91.3257 599.756 88.1882C597.727 87.0093 596.097 85.1141 594.529 83.3458C592.5 81.1241 590.806 79.1563 588.84 79.0928H588.777C587.735 79.0928 586.748 79.6188 585.642 80.7977C585.117 81.3236 584.601 81.913 584.202 82.5025C582.961 84.2707 582.245 86.429 582.109 88.7141V88.7776L581.194 91.5887C581.131 91.7157 581.067 91.7882 580.932 91.7157C580.805 91.6522 580.732 91.5162 580.805 91.4527L581.72 88.6416C581.847 86.2204 582.635 84.0622 583.876 82.2304C584.338 81.5775 584.791 80.9881 585.38 80.4621C586.557 79.2198 587.662 78.6304 588.84 78.6304H588.904C591.06 78.6938 592.89 80.7886 594.919 83.0103C596.486 84.7786 598.117 86.6103 600.019 87.7892C605.445 90.9902 609.169 97.0749 612.829 102.897C613.155 103.423 613.481 103.876 613.744 104.402C614.785 106.034 615.048 107.676 614.595 109.181C613.553 112.518 609.495 114.35 609.305 114.413H609.241C609.051 114.486 608.979 114.422 608.979 114.359Z" fill="black"/>
<path d="M599.639 127.308C599.575 127.244 599.512 127.108 599.575 126.981C603.235 122.012 603.625 112.654 600.291 107.748C598.787 105.463 596.568 104.211 594.013 102.779C590.942 101.01 587.481 99.0517 584.601 94.7352C583.359 92.9035 581.856 91.9241 580.153 91.7881C580.089 91.7881 579.953 91.7881 579.89 91.7881C575.777 91.7881 571.592 96.6939 571.528 96.7574C571.465 96.8209 571.329 96.8209 571.202 96.7574C571.139 96.6939 571.075 96.5579 571.202 96.431C571.402 96.2315 575.714 91.0626 580.153 91.3256C582.046 91.3891 583.686 92.5045 584.99 94.4632C587.798 98.7161 591.268 100.675 594.267 102.38C596.749 103.749 599.104 105.127 600.671 107.485C604.068 112.654 603.742 122.076 599.883 127.244C599.82 127.308 599.756 127.308 599.684 127.308C599.765 127.308 599.702 127.308 599.639 127.308Z" fill="black"/>
<path d="M605.128 110.695C605.065 110.568 605.128 110.432 605.255 110.432C612.774 107.948 611.66 102.126 611.597 101.863C611.597 101.736 611.66 101.6 611.796 101.6C611.932 101.6 612.059 101.663 612.059 101.799C612.059 101.863 613.363 108.211 605.455 110.895H605.391C605.255 110.886 605.192 110.822 605.128 110.695Z" fill="black"/>
<path d="M602.972 102.452C602.909 102.325 603.036 102.189 603.099 102.189C606.37 101.337 607.285 95.5152 607.285 95.4517C607.285 95.3247 607.411 95.2522 607.547 95.2522C607.683 95.2522 607.747 95.3792 607.747 95.5152C607.683 95.7781 606.768 101.727 603.172 102.643H603.108C603.099 102.579 602.972 102.516 602.972 102.452Z" fill="black"/>
<path d="M608.199 104.221C608.136 104.094 608.199 103.958 608.263 103.958C609.893 103.169 610.355 99.9041 610.355 99.9041C610.355 99.7771 610.482 99.7046 610.618 99.7046C610.754 99.7046 610.818 99.8315 610.818 99.9676C610.818 100.104 610.355 103.432 608.535 104.347H608.471C608.326 104.347 608.199 104.284 608.199 104.221Z" fill="black"/>
<path d="M598.66 98.1358C598.597 98.0089 598.66 97.8728 598.724 97.8094C602.909 95.2612 604.014 91.4617 604.014 91.3982C604.014 91.2713 604.141 91.1987 604.277 91.2713C604.404 91.2713 604.476 91.3982 604.404 91.5342C604.34 91.6612 603.289 95.5242 598.914 98.1449C598.85 98.1449 598.851 98.1449 598.787 98.1449C598.724 98.2628 598.66 98.1993 598.66 98.1358Z" fill="black"/>
<path d="M588.269 85.1139C588.206 85.0505 588.143 84.9144 588.206 84.7875C589.973 82.1668 592.455 80.861 592.582 80.7975C592.645 80.7341 592.844 80.7975 592.844 80.861C592.908 80.988 592.844 81.124 592.781 81.124C592.781 81.124 590.299 82.4298 588.596 84.987C588.532 85.0505 588.469 85.0505 588.396 85.0505C588.333 85.1774 588.269 85.1774 588.269 85.1139Z" fill="black"/>
<path d="M590.027 90.3463C589.9 90.2829 589.9 90.1468 589.964 90.0834C591.73 86.5468 596.042 84.8511 596.242 84.7876C596.368 84.7241 596.504 84.7876 596.504 84.9146C596.568 85.0415 596.504 85.1775 596.377 85.1775C596.314 85.1775 592.002 86.9458 590.362 90.2829C590.299 90.3463 590.235 90.4098 590.163 90.4098C590.099 90.4189 590.027 90.4189 590.027 90.3463Z" fill="black"/>
<path d="M534.812 205.548C534.748 205.484 534.685 205.348 534.748 205.285C548.147 177.028 577.679 150.005 577.942 149.751C578.006 149.688 578.141 149.688 578.268 149.751C578.332 149.815 578.332 149.951 578.268 150.078C578.006 150.341 548.473 177.291 535.138 205.484C535.075 205.548 535.011 205.611 534.939 205.611C534.875 205.611 534.812 205.548 534.812 205.548Z" fill="black"/>
<path d="M511.611 125.939C511.611 125.812 511.675 125.676 511.811 125.676C521.223 124.37 531.152 121.16 541.352 116.127C541.479 116.063 541.615 116.127 541.615 116.19C541.615 116.254 541.615 116.453 541.552 116.453C531.288 121.486 521.359 124.76 511.883 126.066C511.675 126.129 511.611 126.002 511.611 125.939Z" fill="black"/>
<path d="M506.384 117.759C506.321 117.632 506.384 117.496 506.448 117.496C518.668 111.148 529.512 108.6 539.577 106.506C539.704 106.506 539.776 106.569 539.84 106.705C539.84 106.832 539.776 106.905 539.64 106.968C529.576 108.999 518.795 111.547 506.638 117.895H506.575C506.511 117.886 506.384 117.823 506.384 117.759Z" fill="black"/>
<path d="M514.483 103.368C514.42 103.305 514.42 103.105 514.547 103.042C519.121 99.505 524.285 99.8406 524.349 99.8406C524.475 99.8406 524.548 99.9675 524.548 100.104C524.548 100.24 524.421 100.303 524.285 100.303C524.222 100.303 519.185 99.9766 514.809 103.377C514.746 103.377 514.746 103.441 514.683 103.441C514.556 103.432 514.483 103.432 514.483 103.368Z" fill="black"/>
<path d="M524.684 102.515C523.053 100.883 520.109 100.811 520.109 100.811C519.982 100.811 519.91 100.747 519.91 100.611C519.91 100.475 519.973 100.412 520.109 100.412C520.236 100.412 523.243 100.475 525.01 102.243C525.073 102.307 525.073 102.443 525.01 102.57C524.946 102.633 524.946 102.633 524.883 102.633C524.811 102.579 524.747 102.579 524.684 102.515Z" fill="black"/>
<path d="M515.072 105.853C515.072 104.674 515.462 103.368 516.377 101.863C516.44 101.736 516.576 101.736 516.639 101.799C516.766 101.863 516.766 101.999 516.703 102.062C515.851 103.432 515.462 104.683 515.462 105.789C515.462 105.916 515.398 105.989 515.262 105.989C515.145 106.116 515.072 105.98 515.072 105.853Z" fill="black"/>
<path d="M520.299 104.148C520.299 102.579 518.016 101.527 517.944 101.464C517.817 101.4 517.745 101.264 517.817 101.201C517.88 101.074 518.016 101.001 518.08 101.074C518.207 101.137 520.625 102.253 520.625 104.148C520.625 104.275 520.562 104.347 520.426 104.347C520.372 104.347 520.299 104.22 520.299 104.148Z" fill="black"/>
<path d="M538.408 122.792C538.281 122.729 538.209 122.593 538.281 122.529C538.345 122.402 538.481 122.33 538.544 122.402C539.722 122.991 540.7 123.055 541.552 122.665C542.793 122.076 543.182 120.634 543.182 120.634C543.182 120.507 543.309 120.434 543.445 120.507C543.572 120.507 543.644 120.634 543.572 120.77C543.572 120.833 543.11 122.402 541.742 123.128C541.352 123.327 540.89 123.39 540.438 123.39C539.84 123.318 539.187 123.118 538.408 122.792Z" fill="black"/>
<path d="M535.99 133.846C535.926 133.719 535.99 133.583 536.053 133.583L537.819 132.731C539.323 131.942 538.608 130.509 538.608 130.373L535.99 122.52C535.926 122.393 535.989 122.257 536.116 122.257C536.243 122.257 536.379 122.257 536.379 122.384L538.997 130.237C538.997 130.237 539.26 130.69 539.26 131.28C539.26 131.869 539.061 132.585 538.019 133.111L536.252 133.964H536.189C536.116 133.982 535.99 133.918 535.99 133.846Z" fill="black"/>
<path d="M531.677 136.53C531.614 136.467 531.551 136.331 531.614 136.204C531.677 136.14 531.813 136.077 531.94 136.14C534.422 137.845 537.04 137.845 537.04 137.845C537.167 137.845 537.24 137.909 537.24 138.045C537.24 138.181 537.176 138.244 537.04 138.244C536.904 138.299 534.286 138.299 531.677 136.53Z" fill="black"/>
<path d="M526.84 127.045C526.713 126.981 526.641 126.845 526.713 126.782C526.776 126.655 526.912 126.582 526.976 126.655C528.153 127.244 529.132 127.308 529.983 126.918C531.224 126.329 531.614 124.887 531.614 124.887C531.614 124.76 531.741 124.687 531.877 124.76C532.003 124.76 532.076 124.887 532.003 125.023C532.003 125.086 531.551 126.655 530.174 127.38C529.784 127.58 529.322 127.643 528.869 127.643C528.28 127.507 527.619 127.371 526.84 127.045Z" fill="black"/>
<path d="M655.316 22.4532C655.252 22.3897 655.189 22.2537 655.252 22.1902L657.608 17.2843C657.671 17.2209 657.807 17.1574 657.87 17.2209C657.934 17.2843 657.997 17.4204 657.934 17.4838L655.579 22.3897C655.515 22.4532 655.452 22.5167 655.379 22.5167C655.379 22.4532 655.316 22.4532 655.316 22.4532Z" fill="black"/>
<path d="M649.174 22.4531C649.11 22.3896 649.047 22.2536 649.11 22.1902L653.223 13.6843C653.286 13.6208 653.422 13.5573 653.486 13.6208C653.549 13.6843 653.613 13.8203 653.549 13.8838L649.436 22.3896C649.373 22.4531 649.31 22.5166 649.237 22.5166C649.237 22.4531 649.237 22.4531 649.174 22.4531Z" fill="black"/>
<path d="M644.798 18.0643C644.735 18.0008 644.671 17.8648 644.735 17.8013L648.92 10.6738C648.983 10.6103 649.119 10.5468 649.183 10.6103C649.246 10.6738 649.31 10.8098 649.246 10.8733L645.061 18.0008C645.061 18.0643 644.934 18.1278 644.862 18.1278C644.925 18.1278 644.862 18.0643 644.798 18.0643Z" fill="black"/>
<path d="M344.517 345.532C344.317 345.269 344.317 345.007 344.517 344.68C345.042 343.701 347.325 342.458 350.795 342.585C352.362 342.649 353.802 342.322 354.907 342.059C355.696 341.86 356.275 341.733 356.864 341.733C356.991 341.733 357.063 341.796 357.063 341.932C357.063 342.068 357 342.132 356.864 342.132C356.339 342.132 355.687 342.331 354.971 342.458C353.793 342.721 352.353 343.048 350.722 342.984C347.452 342.785 345.232 344.027 344.843 344.816C344.779 344.943 344.779 345.079 344.779 345.206C344.843 345.206 345.169 345.206 345.432 345.206C345.694 345.206 345.957 345.206 346.347 345.206C347.262 345.206 348.113 345.206 348.965 345.206C349.091 345.206 349.164 345.27 349.164 345.406C349.164 345.542 349.101 345.605 348.965 345.605C348.113 345.605 347.262 345.605 346.347 345.605C345.957 345.605 345.694 345.605 345.432 345.605C345.169 345.605 344.979 345.605 344.843 345.605C344.707 345.659 344.643 345.659 344.517 345.532Z" fill="black"/>
<path d="M575.85 133.919L568.403 128.686C568.34 128.623 568.276 128.487 568.34 128.36C568.403 128.296 568.539 128.233 568.666 128.296L576.112 133.529C576.176 133.592 576.239 133.728 576.176 133.855C576.112 133.919 576.049 133.919 575.976 133.919C575.913 133.982 575.913 133.919 575.85 133.919Z" fill="black"/>
<path d="M574.545 108.727C574.482 108.664 574.482 108.464 574.608 108.401L581.865 102.905C581.928 102.842 582.127 102.842 582.191 102.969C582.254 103.032 582.254 103.232 582.127 103.295L574.871 108.791C574.871 108.791 574.808 108.854 574.744 108.854C574.672 108.8 574.608 108.8 574.545 108.727Z" fill="black"/>
<path d="M548.473 156.68C548.41 156.616 548.41 156.417 548.536 156.353L555.793 150.858C555.856 150.794 556.055 150.794 556.119 150.921C556.182 150.985 556.182 151.184 556.055 151.248L548.799 156.743C548.799 156.743 548.736 156.807 548.672 156.807C548.536 156.743 548.473 156.68 548.473 156.68Z" fill="black"/>
<path d="M479.724 163.617C479.66 163.553 479.66 163.354 479.787 163.29L487.043 157.795C487.107 157.731 487.306 157.731 487.369 157.858C487.433 157.922 487.433 158.121 487.306 158.185L480.05 163.68C480.05 163.68 479.986 163.744 479.923 163.744C479.787 163.68 479.787 163.68 479.724 163.617Z" fill="black"/>
<path d="M496.646 189.651L487.696 188.019C487.569 188.019 487.496 187.892 487.496 187.756C487.496 187.62 487.623 187.556 487.759 187.556L496.709 189.189C496.836 189.189 496.909 189.316 496.909 189.452C496.909 189.588 496.782 189.651 496.646 189.651Z" fill="black"/>
<path d="M524.811 198.547C524.684 198.547 524.611 198.42 524.611 198.284L525.526 189.261C525.526 189.134 525.653 189.062 525.789 189.062C525.925 189.062 525.988 189.189 525.988 189.325L525.073 198.348C525.01 198.484 524.946 198.547 524.811 198.547Z" fill="black"/>
<path d="M498.802 225.434C498.802 225.307 498.865 225.234 499.001 225.234L508.088 224.781C508.214 224.781 508.287 224.844 508.287 224.981C508.287 225.107 508.223 225.18 508.088 225.18L499.001 225.633C498.865 225.624 498.802 225.561 498.802 225.434Z" fill="black"/>
<path d="M457.438 200.905L455.155 192.072C455.155 191.945 455.219 191.809 455.282 191.809C455.346 191.809 455.545 191.873 455.545 191.936L457.828 200.769C457.828 200.896 457.764 201.032 457.701 201.032H457.637C457.565 201.095 457.502 201.032 457.438 200.905Z" fill="black"/>
<path d="M442.926 229.551L436.72 222.877C436.657 222.814 436.657 222.677 436.72 222.551C436.783 222.487 436.919 222.487 437.046 222.551L443.252 229.225C443.315 229.288 443.315 229.424 443.252 229.551C443.188 229.615 443.188 229.615 443.125 229.615C443.061 229.615 442.998 229.615 442.926 229.551Z" fill="black"/>
<path d="M479.262 260.428C479.135 260.428 479.062 260.301 479.062 260.165L480.503 251.206C480.503 251.079 480.629 251.006 480.765 251.006C480.901 251.006 480.965 251.133 480.965 251.269L479.524 260.228C479.524 260.364 479.397 260.428 479.262 260.428Z" fill="black"/>
<path d="M438.749 282.409C438.749 282.282 438.813 282.21 438.949 282.146L447.962 280.967C448.089 280.967 448.162 281.031 448.225 281.167C448.225 281.294 448.162 281.366 448.026 281.43L439.012 282.609C438.876 282.6 438.749 282.536 438.749 282.409Z" fill="black"/>
<path d="M519.973 159.364C519.91 159.3 519.846 159.164 519.91 159.037C519.973 158.974 520.109 158.91 520.236 158.974C524.158 161.721 530.826 160.543 531.668 159.69C532.456 158.901 532.909 158.321 532.973 155.963C532.973 155.836 533.036 155.764 533.172 155.764C533.308 155.764 533.371 155.827 533.371 155.963C533.308 158.185 532.846 159.037 531.931 159.953C531.406 160.479 529.186 161.068 526.568 161.068C524.358 161.132 521.875 160.669 519.973 159.364Z" fill="black"/>
</svg>
